<svg width="204" height="48" viewBox="0 0 204 48" fill="none" xmlns="http://www.w3.org/2000/svg">
<path d="M185.802 45.9097V16.5572H192.7V21.6939C193.743 19.998 195.048 18.6771 196.613 17.7313C198.211 16.7529 200.103 16.2637 202.288 16.2637L204 23.2104C203.381 23.0148 202.679 22.9169 201.897 22.9169C199.353 22.9169 197.314 23.7323 195.782 25.363C194.249 26.9936 193.482 29.3092 193.482 32.3097V45.9097H185.802Z" fill="#001011"/>
<path d="M162.353 46.5934C159.679 46.5934 157.233 45.9085 155.015 44.5387C152.797 43.1363 151.02 41.2773 149.682 38.9617C148.378 36.6135 147.726 34.037 147.726 31.2322C147.726 28.4274 148.378 25.8673 149.682 23.5517C151.02 21.2035 152.797 19.3445 155.015 17.9747C157.233 16.5723 159.679 15.8711 162.353 15.8711C164.277 15.8711 166.055 16.2135 167.685 16.8984C169.316 17.5833 170.702 18.5454 171.844 19.7848V16.556H178.546V45.9085H171.844V42.6797C170.702 43.8864 169.316 44.8486 167.685 45.5661C166.055 46.2509 164.277 46.5934 162.353 46.5934ZM163.282 39.7934C164.848 39.7934 166.25 39.402 167.49 38.6193C168.762 37.8366 169.773 36.8092 170.523 35.5373C171.273 34.2327 171.648 32.7977 171.648 31.2322C171.648 29.6668 171.273 28.2481 170.523 26.9761C169.773 25.6716 168.762 24.6279 167.49 23.8452C166.25 23.0625 164.864 22.6711 163.331 22.6711C161.766 22.6711 160.347 23.0625 159.075 23.8452C157.836 24.6279 156.841 25.6716 156.091 26.9761C155.341 28.2481 154.966 29.6668 154.966 31.2322C154.966 32.7977 155.341 34.2327 156.091 35.5373C156.841 36.8092 157.836 37.8366 159.075 38.6193C160.347 39.402 161.75 39.7934 163.282 39.7934Z" fill="#001011"/>
<path d="M132.779 46.7895C130.92 46.7895 129.012 46.4796 127.055 45.86C125.098 45.2077 123.532 44.2945 122.358 43.1204L124.315 35.6844C125.261 37.0542 126.533 38.2283 128.131 39.2067C129.762 40.1525 131.441 40.6254 133.17 40.6254C134.474 40.6254 135.42 40.3645 136.007 39.8427C136.627 39.2883 136.937 38.6197 136.937 37.8369C136.937 36.9564 136.627 36.3204 136.007 35.929C135.388 35.505 134.768 35.1789 134.148 34.9506L130.088 33.4341C129.24 33.0753 128.245 32.6024 127.104 32.0153C125.962 31.3957 124.968 30.5314 124.12 29.4225C123.304 28.2811 122.897 26.7971 122.897 24.9707C122.897 23.3074 123.304 21.7746 124.12 20.3722C124.935 18.9698 126.109 17.8446 127.642 16.9966C129.207 16.1161 131.083 15.6758 133.268 15.6758C135.225 15.6758 137.084 16.0182 138.845 16.7031C140.639 17.3554 141.992 18.1707 142.905 19.1492L141.095 26.3895C140.051 24.9544 138.796 23.8456 137.328 23.0628C135.861 22.2475 134.442 21.8398 133.072 21.8398C131.931 21.8398 131.083 22.1007 130.528 22.6225C129.974 23.1118 129.697 23.6988 129.697 24.3837C129.697 24.9055 129.892 25.3947 130.284 25.8513C130.675 26.3079 131.311 26.6993 132.191 27.0254L136.007 28.493C137.018 28.8518 138.127 29.3573 139.334 30.0096C140.541 30.6293 141.568 31.5098 142.416 32.6513C143.297 33.7928 143.737 35.3583 143.737 37.3477C143.737 40.1525 142.709 42.4355 140.655 44.1966C138.633 45.9252 136.007 46.7895 132.779 46.7895Z" fill="#001011"/>
<path d="M100.232 46.5934C97.5575 46.5934 95.1114 45.9085 92.8937 44.5387C90.676 43.1363 88.8985 41.2773 87.5613 38.9617C86.2568 36.6135 85.6045 34.037 85.6045 31.2322C85.6045 28.4274 86.2568 25.8673 87.5613 23.5517C88.8985 21.2035 90.676 19.3445 92.8937 17.9747C95.1114 16.5723 97.5575 15.8711 100.232 15.8711C102.156 15.8711 103.934 16.2135 105.564 16.8984C107.195 17.5833 108.581 18.5454 109.722 19.7848V16.556H116.425V45.9085H109.722V42.6797C108.581 43.8864 107.195 44.8486 105.564 45.5661C103.934 46.2509 102.156 46.5934 100.232 46.5934ZM101.161 39.7934C102.727 39.7934 104.129 39.402 105.369 38.6193C106.64 37.8366 107.651 36.8092 108.402 35.5373C109.152 34.2327 109.527 32.7977 109.527 31.2322C109.527 29.6668 109.152 28.2481 108.402 26.9761C107.651 25.6716 106.64 24.6279 105.369 23.8452C104.129 23.0625 102.743 22.6711 101.21 22.6711C99.6448 22.6711 98.2261 23.0625 96.9541 23.8452C95.7148 24.6279 94.7201 25.6716 93.97 26.9761C93.2198 28.2481 92.8448 29.6668 92.8448 31.2322C92.8448 32.7977 93.2198 34.2327 93.97 35.5373C94.7201 36.8092 95.7148 37.8366 96.9541 38.6193C98.2261 39.402 99.6285 39.7934 101.161 39.7934Z" fill="#001011"/>
<path d="M64.0528 46.7897C61.9981 46.7897 60.0576 46.2842 58.2312 45.2732C56.4048 44.2622 54.9372 42.8108 53.8283 40.9192C52.7195 38.995 52.165 36.6631 52.165 33.9235V16.5566H59.8456V32.8962C59.8456 34.7226 60.3837 36.337 61.46 37.7394C62.5689 39.1418 64.1017 39.843 66.0586 39.843C67.6893 39.843 69.1406 39.2559 70.4125 38.0818C71.6845 36.9077 72.3204 35.2281 72.3204 33.043V16.5566H80.001V45.9092H73.0053V42.3869C71.9617 43.8219 70.6571 44.9144 69.0917 45.6646C67.5262 46.4147 65.8466 46.7897 64.0528 46.7897Z" fill="#001011"/>
<path d="M37.9626 47.377L34.8806 43.659C33.152 44.67 31.293 45.4365 29.3036 45.9583C27.3468 46.5127 25.3084 46.7899 23.1885 46.7899C19.9923 46.7899 16.9918 46.2029 14.1871 45.0288C11.3823 43.8221 8.9036 42.1751 6.75108 40.0878C4.63118 38.0005 2.96787 35.5707 1.76115 32.7986C0.58705 30.0264 0 27.0585 0 23.895C0 20.7314 0.58705 17.7635 1.76115 14.9914C2.96787 12.2192 4.63118 9.78945 6.75108 7.70216C8.9036 5.61487 11.3823 3.98417 14.1871 2.81007C16.9918 1.60336 19.9923 1 23.1885 1C26.4173 1 29.4177 1.60336 32.1899 2.81007C34.9947 3.98417 37.4571 5.61487 39.577 7.70216C41.7295 9.78945 43.3928 12.2192 44.5669 14.9914C45.7736 17.7635 46.377 20.7314 46.377 23.895C46.377 26.8954 45.8389 29.7165 44.7626 32.3583C43.6863 35 42.1861 37.3482 40.2619 39.4029L46.9151 47.377H37.9626ZM23.1885 39.1094C25.5367 39.1094 27.7381 38.5875 29.7928 37.5439L18.4432 23.895H27.3957L35.0763 33.0921C36.0221 31.8201 36.7559 30.4014 37.2777 28.836C37.7995 27.2705 38.0604 25.6235 38.0604 23.895C38.0604 21.0576 37.3919 18.4974 36.0547 16.2144C34.7501 13.9314 32.9727 12.105 30.7223 10.7352C28.5046 9.36547 25.9933 8.68057 23.1885 8.68057C20.3837 8.68057 17.8561 9.36547 15.6058 10.7352C13.3554 12.105 11.5779 13.9314 10.2734 16.2144C8.96883 18.4974 8.31655 21.0576 8.31655 23.895C8.31655 26.6998 8.96883 29.26 10.2734 31.5755C11.5779 33.8585 13.3554 35.6849 15.6058 37.0547C17.8561 38.4245 20.3837 39.1094 23.1885 39.1094Z" fill="#001011"/>
</svg>
