<svg width="1024" height="1024" viewBox="0 0 1024 1024" fill="none" xmlns="http://www.w3.org/2000/svg">
<g clip-path="url(#clip0_232_1091)">
<path d="M565.817 527.063L308.627 1021.97L204.94 1023.73L471.521 488.669L565.817 527.063Z" fill="url(#paint0_linear_232_1091)"/>
<path d="M394.5 221.653L663 310.653L772 404.153L827 490.153L844 561.653L816 602.153L736.5 636.653L625.5 646.153L577 624.153L695.5 574.153C677 522.154 663 490.153 625.5 449.654C567.133 386.62 39.5 172.654 30 430.154V291.153L214 210.653L394.5 221.653Z" fill="#587B66"/>
<path d="M624.462 800.181L356.19 710.496L247.429 616.718L192.648 530.578L175.831 459.035L203.934 418.606L283.522 384.309L394.546 375.093L442.99 397.216L324.362 446.914C342.73 498.96 356.648 530.996 394.044 571.591C452.25 634.774 979.336 850.085 989.493 592.611L989.138 731.611L804.933 811.641L624.462 800.181Z" fill="#587B66"/>
<path d="M394.5 222.152L663 311.152L772 404.652L827 490.652L844 562.152L816 602.652L736.5 637.152L625.5 646.652L577 624.652L695.5 574.652C726.5 522.652 660.24 418.337 491 329.152C287.953 222.152 62 199.652 23 366.652L30 291.652L214 211.152L394.5 222.152Z" fill="url(#paint1_linear_232_1091)"/>
<path d="M636.299 801.476L367.01 714.894L257.173 622.377L201.403 536.875L183.76 465.531L212.001 400.633L290.582 389.567L401.492 379.07L450.188 400.633L332.142 451.696C301.611 503.973 368.806 607.688 538.841 695.348C742.842 800.518 968.988 820.986 1006.48 653.642L1000.16 728.702L816.891 810.853L636.299 801.476Z" fill="url(#paint2_linear_232_1091)"/>
<path d="M398.599 753.164C398.599 753.164 289.141 701.986 280.242 696.731C174.365 634.208 36.8993 530.506 5.83546 408.963C-21.5948 301.637 51.2593 236.301 149.389 211.744C299.972 174.064 481.856 211.744 623.594 271.767C783.688 351.919 936.416 466.293 989.499 553.942C1063.42 676.006 1014.07 775.944 884.258 817.531C729.369 867.152 545.64 811.075 398.599 753.164ZM815.261 425.319C905.284 545.177 871.047 659.364 706.705 672.093C597.008 680.591 446.836 635.429 363.018 563.366C326.143 531.665 294.774 482.932 333.535 439.433C360.725 408.923 409.406 405.572 447.406 403.46C372.185 380.113 165.831 378.366 195.617 504.834C211.501 572.272 286.662 638.739 345.532 675.307C415.886 719.008 459.343 737.91 459.343 737.91C568.967 782.603 709.619 812.695 826.263 793.15C907.299 779.573 1003.34 736.393 986.437 638.734C972.137 556.116 882.871 472.971 815.261 425.319ZM608.341 628.632C671.945 641.051 810.576 643.003 826.497 557.101C840.62 480.926 743.5 372.152 626.418 313.003C484.041 247.89 273.893 200.111 126.752 254.944C50.6074 283.321 15.7427 342.644 46.0571 420.755C79.595 507.173 150.36 558.667 218.075 614.812C215.316 610.575 211.684 607.062 208.542 603.128C154.671 535.696 126.823 443.173 210.063 387.331C324.16 310.786 546.928 374.046 646.206 455.943C741.996 534.962 726.816 597.703 608.341 628.632ZM558.552 587.291C670.051 582.292 582.132 443.6 464.841 456.318C399.095 466.02 394.978 516.848 448.38 554.158C480.218 576.403 519.823 588.314 558.552 587.291Z" fill="url(#paint3_linear_232_1091)"/>
<path d="M628.004 554.46C616.162 589.166 556.068 600.071 493.781 578.817C431.494 557.564 390.601 512.199 402.443 477.493C414.286 442.788 474.379 431.882 536.666 453.136C598.953 474.39 639.847 519.754 628.004 554.46Z" fill="#C3F73A"/>
<path d="M565.122 532.506C570.406 517.02 552.159 496.779 524.367 487.295C496.575 477.812 469.761 482.678 464.477 498.163C459.193 513.649 477.439 533.89 505.232 543.374C533.024 552.857 559.838 547.991 565.122 532.506Z" fill="white"/>
<path d="M465.5 496L733.805 1.98765L837.586 1.62432L563.5 536L465.5 496Z" fill="url(#paint4_linear_232_1091)"/>
</g>
<defs>
<linearGradient id="paint0_linear_232_1091" x1="497.773" y1="499.358" x2="497.663" y2="948.5" gradientUnits="userSpaceOnUse">
<stop stop-color="white"/>
<stop offset="1" stop-color="white" stop-opacity="0"/>
</linearGradient>
<linearGradient id="paint1_linear_232_1091" x1="433.5" y1="211.152" x2="433.5" y2="646.652" gradientUnits="userSpaceOnUse">
<stop stop-color="#68B684"/>
<stop offset="1" stop-color="#3A5544"/>
</linearGradient>
<linearGradient id="paint2_linear_232_1091" x1="597.399" y1="812.826" x2="593.484" y2="377.344" gradientUnits="userSpaceOnUse">
<stop stop-color="#68B684"/>
<stop offset="1" stop-color="#3A5544"/>
</linearGradient>
<linearGradient id="paint3_linear_232_1091" x1="25.5" y1="284.152" x2="1007" y2="735.152" gradientUnits="userSpaceOnUse">
<stop stop-color="#95E06C"/>
</linearGradient>
<linearGradient id="paint4_linear_232_1091" x1="529" y1="0.500004" x2="529" y2="539" gradientUnits="userSpaceOnUse">
<stop offset="0.183965" stop-color="white" stop-opacity="0"/>
<stop offset="1" stop-color="white"/>
</linearGradient>
<clipPath id="clip0_232_1091">
<rect width="1024" height="1024" fill="white"/>
</clipPath>
</defs>
</svg>
