<svg width="256" height="256" viewBox="0 0 256 256" fill="none" xmlns="http://www.w3.org/2000/svg">
<g clip-path="url(#clip0_422_1131)">
<rect width="256" height="256" rx="128" fill="white"/>
<g clip-path="url(#clip1_422_1131)">
<mask id="mask0_422_1131" style="mask-type:luminance" maskUnits="userSpaceOnUse" x="0" y="0" width="256" height="256">
<path d="M256 128C256 57.3075 198.692 0 128 0C57.3075 0 0 57.3075 0 128C0 198.692 57.3075 256 128 256C198.692 256 256 198.692 256 128Z" fill="white"/>
</mask>
<g mask="url(#mask0_422_1131)">
<path d="M256 0H0V256H256V0Z" fill="#95E06C"/>
<path d="M231.554 52.7638C190.002 -4.42764 109.955 -17.1059 52.7632 24.4461C-4.42823 65.9981 -17.1065 146.045 24.4455 203.237C65.9975 260.428 146.045 273.106 203.236 231.554C260.428 190.002 273.106 109.955 231.554 52.7638Z" fill="#E4F1E9"/>
<path d="M78.7695 108.138C93.4532 114.239 107.641 113.247 121.332 105.161" stroke="black" stroke-width="2.22222" stroke-linecap="round"/>
<path d="M51.957 81.4986C51.6831 77.5809 49.079 74.5714 46.1407 74.7769C43.2023 74.9824 41.0424 78.3249 41.3164 82.2427C41.5903 86.1605 44.1944 89.1699 47.1327 88.9645C50.0711 88.759 52.231 85.4164 51.957 81.4986Z" fill="black"/>
<path d="M151.271 74.5538C150.997 70.636 148.392 67.6266 145.454 67.8321C142.516 68.0375 140.356 71.3801 140.63 75.2979C140.904 79.2157 143.508 82.2251 146.446 82.0196C149.385 81.8142 151.544 78.4716 151.271 74.5538Z" fill="black"/>
</g>
</g>
</g>
<defs>
<clipPath id="clip0_422_1131">
<rect width="256" height="256" rx="128" fill="white"/>
</clipPath>
<clipPath id="clip1_422_1131">
<rect width="256" height="256" fill="white"/>
</clipPath>
</defs>
</svg>
