<svg width="256" height="256" viewBox="0 0 256 256" fill="none" xmlns="http://www.w3.org/2000/svg">
<g clip-path="url(#clip0_422_1298)">
<rect width="256" height="256" rx="128" fill="white"/>
<g clip-path="url(#clip1_422_1298)">
<mask id="mask0_422_1298" style="mask-type:luminance" maskUnits="userSpaceOnUse" x="0" y="0" width="256" height="256">
<path d="M256 128C256 57.3075 198.692 0 128 0C57.3075 0 0 57.3075 0 128C0 198.692 57.3075 256 128 256C198.692 256 256 198.692 256 128Z" fill="white"/>
</mask>
<g mask="url(#mask0_422_1298)">
<path d="M256 0H0V256H256V0Z" fill="#C3F73A"/>
<path d="M198.644 300.418L326.678 163.118C344.356 144.161 343.319 114.463 324.362 96.785L187.062 -31.2488C168.105 -48.9266 138.407 -47.8895 120.729 -28.9324L-7.30497 108.367C-24.9827 127.324 -23.9456 157.023 -4.98856 174.7L132.311 302.734C151.268 320.412 180.966 319.375 198.644 300.418Z" fill="#68B684"/>
<path d="M132.329 129.097C146.904 135.454 161.107 134.709 174.937 126.864" stroke="black" stroke-width="2.22222" stroke-linecap="round"/>
<path d="M112.715 94.5202C112.509 90.5982 109.958 87.5438 107.016 87.6979C104.075 87.8521 101.857 91.1564 102.063 95.0784C102.268 99.0004 104.819 102.055 107.761 101.901C110.702 101.747 112.92 98.4421 112.715 94.5202Z" fill="black"/>
<path d="M197.931 90.0543C197.726 86.1324 195.175 83.0779 192.233 83.2321C189.292 83.3863 187.074 86.6906 187.279 90.6126C187.485 94.5346 190.036 97.589 192.978 97.4348C195.919 97.2807 198.137 93.9763 197.931 90.0543Z" fill="black"/>
</g>
</g>
</g>
<defs>
<clipPath id="clip0_422_1298">
<rect width="256" height="256" rx="128" fill="white"/>
</clipPath>
<clipPath id="clip1_422_1298">
<rect width="256" height="256" fill="white"/>
</clipPath>
</defs>
</svg>
