<svg width="256" height="256" viewBox="0 0 256 256" fill="none" xmlns="http://www.w3.org/2000/svg">
<g clip-path="url(#clip0_422_1284)">
<rect width="256" height="256" rx="128" fill="white"/>
<g clip-path="url(#clip1_422_1284)">
<mask id="mask0_422_1284" style="mask-type:luminance" maskUnits="userSpaceOnUse" x="0" y="0" width="256" height="256">
<path d="M256 128C256 57.3075 198.692 0 128 0C57.3075 0 0 57.3075 0 128C0 198.692 57.3075 256 128 256C198.692 256 256 198.692 256 128Z" fill="white"/>
</mask>
<g mask="url(#mask0_422_1284)">
<path d="M256 0H0V256H256V0Z" fill="#95E06C"/>
<path d="M-33.9799 171.976C-45.0386 241.799 2.5985 307.365 72.4206 318.424C142.243 329.483 207.81 281.846 218.868 212.024C229.927 142.202 182.29 76.6347 112.468 65.5759C42.6457 54.5172 -22.9211 102.154 -33.9799 171.976Z" fill="#E4F1E9"/>
<path d="M58.4385 172.586C59.5449 179.571 64.3058 185.685 71.674 189.581C79.0422 193.477 88.4141 194.837 97.7279 193.362C107.042 191.887 115.535 187.697 121.338 181.715C127.142 175.732 129.78 168.447 128.674 161.462" fill="black"/>
<path d="M43.4534 146.16C42.8391 142.281 39.9826 139.51 37.0733 139.971C34.1641 140.432 32.3037 143.95 32.9181 147.829C33.5325 151.708 36.3889 154.479 39.2982 154.018C42.2074 153.557 44.0678 150.039 43.4534 146.16Z" fill="black"/>
<path d="M141.784 130.586C141.169 126.707 138.313 123.936 135.403 124.397C132.494 124.858 130.634 128.376 131.248 132.255C131.863 136.134 134.719 138.905 137.628 138.444C140.538 137.983 142.398 134.465 141.784 130.586Z" fill="black"/>
</g>
</g>
</g>
<defs>
<clipPath id="clip0_422_1284">
<rect width="256" height="256" rx="128" fill="white"/>
</clipPath>
<clipPath id="clip1_422_1284">
<rect width="256" height="256" fill="white"/>
</clipPath>
</defs>
</svg>
