<svg width="256" height="256" viewBox="0 0 256 256" fill="none" xmlns="http://www.w3.org/2000/svg">
<g clip-path="url(#clip0_422_1270)">
<rect width="256" height="256" rx="128" fill="white"/>
<g clip-path="url(#clip1_422_1270)">
<mask id="mask0_422_1270" style="mask-type:luminance" maskUnits="userSpaceOnUse" x="0" y="0" width="256" height="256">
<path d="M256 128C256 57.3075 198.692 0 128 0C57.3075 0 0 57.3075 0 128C0 198.692 57.3075 256 128 256C198.692 256 256 198.692 256 128Z" fill="white"/>
</mask>
<g mask="url(#mask0_422_1270)">
<path d="M256 0H0V256H256V0Z" fill="#0C2524"/>
<path d="M47.099 85.018C-0.203523 137.553 4.03804 218.487 56.5728 265.789C109.108 313.092 190.042 308.85 237.344 256.315C284.647 203.781 280.405 122.847 227.87 75.5442C175.335 28.2417 94.4015 32.4833 47.099 85.018Z" fill="#95E06C"/>
<path d="M50.0469 143.458C50.2937 150.527 54.2742 157.175 61.1126 161.94C67.951 166.705 77.0873 169.197 86.5114 168.868C95.9356 168.539 104.876 165.416 111.365 160.185C117.854 154.954 121.361 148.045 121.115 140.977" fill="black"/>
<path d="M52.6076 114.907C52.4705 110.982 49.973 107.884 47.0293 107.987C44.0856 108.09 41.8103 111.355 41.9474 115.28C42.0845 119.205 44.5819 122.303 47.5257 122.2C50.4694 122.097 52.7446 118.832 52.6076 114.907Z" fill="black"/>
<path d="M123.675 112.425C123.538 108.5 121.04 105.402 118.097 105.505C115.153 105.608 112.878 108.873 113.015 112.798C113.152 116.723 115.649 119.821 118.593 119.718C121.537 119.616 123.812 116.35 123.675 112.425Z" fill="black"/>
</g>
</g>
</g>
<defs>
<clipPath id="clip0_422_1270">
<rect width="256" height="256" rx="128" fill="white"/>
</clipPath>
<clipPath id="clip1_422_1270">
<rect width="256" height="256" fill="white"/>
</clipPath>
</defs>
</svg>
