<svg width="256" height="256" viewBox="0 0 256 256" fill="none" xmlns="http://www.w3.org/2000/svg">
<g clip-path="url(#clip0_422_1256)">
<rect width="256" height="256" rx="128" fill="white"/>
<g clip-path="url(#clip1_422_1256)">
<mask id="mask0_422_1256" style="mask-type:luminance" maskUnits="userSpaceOnUse" x="0" y="0" width="256" height="256">
<path d="M256 128C256 57.3075 198.692 0 128 0C57.3075 0 0 57.3075 0 128C0 198.692 57.3075 256 128 256C198.692 256 256 198.692 256 128Z" fill="white"/>
</mask>
<g mask="url(#mask0_422_1256)">
<path d="M256 0H0V256H256V0Z" fill="#C3F73A"/>
<path d="M7.28618 128.412C3.58642 199.008 57.8162 259.236 128.412 262.936C199.007 266.636 259.236 212.406 262.935 141.81C266.635 71.2146 212.405 10.9864 141.81 7.28661C71.2142 3.58685 10.9859 57.8166 7.28618 128.412Z" fill="#68B684"/>
<path d="M56.5459 133.985C70.3765 141.831 84.5792 142.575 99.1541 136.218" stroke="black" stroke-width="2.22222" stroke-linecap="round"/>
<path d="M40.2809 104.649C40.4864 100.727 38.2685 97.4225 35.327 97.2684C32.3855 97.1142 29.8344 100.169 29.6288 104.091C29.4233 108.013 31.6412 111.317 34.5827 111.471C37.5241 111.625 40.0753 108.571 40.2809 104.649Z" fill="black"/>
<path d="M125.498 109.115C125.703 105.193 123.485 101.888 120.544 101.734C117.602 101.58 115.051 104.634 114.846 108.556C114.64 112.478 116.858 115.783 119.799 115.937C122.741 116.091 125.292 113.037 125.498 109.115Z" fill="black"/>
</g>
</g>
</g>
<defs>
<clipPath id="clip0_422_1256">
<rect width="256" height="256" rx="128" fill="white"/>
</clipPath>
<clipPath id="clip1_422_1256">
<rect width="256" height="256" fill="white"/>
</clipPath>
</defs>
</svg>
