<svg width="256" height="256" viewBox="0 0 256 256" fill="none" xmlns="http://www.w3.org/2000/svg">
<g clip-path="url(#clip0_422_1242)">
<rect width="256" height="256" rx="128" fill="white"/>
<g clip-path="url(#clip1_422_1242)">
<mask id="mask0_422_1242" style="mask-type:luminance" maskUnits="userSpaceOnUse" x="0" y="0" width="256" height="256">
<path d="M256 128C256 57.3075 198.692 0 128 0C57.3075 0 0 57.3075 0 128C0 198.692 57.3075 256 128 256C198.692 256 256 198.692 256 128Z" fill="white"/>
</mask>
<g mask="url(#mask0_422_1242)">
<path d="M256 0H0V256H256V0Z" fill="#C3F73A"/>
<path d="M357.035 160.304L233.784 -3.25634C216.766 -25.8393 184.664 -30.3511 162.081 -13.3336L-1.47998 109.918C-24.063 126.936 -28.5747 159.038 -11.5572 181.621L111.695 345.182C128.712 367.765 160.815 372.277 183.398 355.259L346.958 232.007C369.541 214.99 374.053 182.887 357.035 160.304Z" fill="#68B684"/>
<path d="M130.469 119.743C144.299 127.589 158.502 128.333 173.077 121.976" stroke="black" stroke-width="2.22222" stroke-linecap="round"/>
<path d="M114.948 76.2045C115.153 72.2826 112.935 68.9782 109.994 68.824C107.053 68.6699 104.501 71.7243 104.296 75.6463C104.09 79.5683 106.308 82.8726 109.25 83.0268C112.191 83.1809 114.742 80.1265 114.948 76.2045Z" fill="black"/>
<path d="M200.165 80.6704C200.37 76.7484 198.152 73.444 195.211 73.2899C192.269 73.1357 189.718 76.1901 189.513 80.1121C189.307 84.0341 191.525 87.3384 194.466 87.4926C197.408 87.6468 199.959 84.5923 200.165 80.6704Z" fill="black"/>
</g>
</g>
</g>
<defs>
<clipPath id="clip0_422_1242">
<rect width="256" height="256" rx="128" fill="white"/>
</clipPath>
<clipPath id="clip1_422_1242">
<rect width="256" height="256" fill="white"/>
</clipPath>
</defs>
</svg>
