<svg width="256" height="256" viewBox="0 0 256 256" fill="none" xmlns="http://www.w3.org/2000/svg">
<g clip-path="url(#clip0_422_1228)">
<rect width="256" height="256" rx="128" fill="white"/>
<g clip-path="url(#clip1_422_1228)">
<mask id="mask0_422_1228" style="mask-type:luminance" maskUnits="userSpaceOnUse" x="0" y="0" width="256" height="256">
<path d="M256 128C256 57.3075 198.692 0 128 0C57.3075 0 0 57.3075 0 128C0 198.692 57.3075 256 128 256C198.692 256 256 198.692 256 128Z" fill="white"/>
</mask>
<g mask="url(#mask0_422_1228)">
<path d="M256 0H0V256H256V0Z" fill="#68B684"/>
<path d="M305.159 115.938C278.563 42.8661 197.766 5.18988 124.693 31.7859C51.6214 58.382 13.9451 139.179 40.5412 212.251C67.1373 285.323 147.934 322.999 221.006 296.403C294.078 269.807 331.755 189.01 305.159 115.938Z" fill="#0C2524"/>
<path d="M78.2217 120.889C92.4439 128 106.666 128 120.888 120.889" stroke="white" stroke-width="2.22222" stroke-linecap="round"/>
<path d="M81.777 85.3333C81.777 81.4059 79.3892 78.2222 76.4437 78.2222C73.4982 78.2222 71.1104 81.4059 71.1104 85.3333C71.1104 89.2606 73.4982 92.4444 76.4437 92.4444C79.3892 92.4444 81.777 89.2606 81.777 85.3333Z" fill="white"/>
<path d="M124.444 85.3333C124.444 81.4059 122.056 78.2222 119.111 78.2222C116.165 78.2222 113.777 81.4059 113.777 85.3333C113.777 89.2606 116.165 92.4444 119.111 92.4444C122.056 92.4444 124.444 89.2606 124.444 85.3333Z" fill="white"/>
</g>
</g>
</g>
<defs>
<clipPath id="clip0_422_1228">
<rect width="256" height="256" rx="128" fill="white"/>
</clipPath>
<clipPath id="clip1_422_1228">
<rect width="256" height="256" fill="white"/>
</clipPath>
</defs>
</svg>
