<svg width="256" height="256" viewBox="0 0 256 256" fill="none" xmlns="http://www.w3.org/2000/svg">
<g clip-path="url(#clip0_422_1214)">
<rect width="256" height="256" rx="128" fill="white"/>
<g clip-path="url(#clip1_422_1214)">
<mask id="mask0_422_1214" style="mask-type:luminance" maskUnits="userSpaceOnUse" x="0" y="0" width="256" height="256">
<path d="M256 128C256 57.3075 198.692 0 128 0C57.3075 0 0 57.3075 0 128C0 198.692 57.3075 256 128 256C198.692 256 256 198.692 256 128Z" fill="white"/>
</mask>
<g mask="url(#mask0_422_1214)">
<path d="M256 0H0V256H256V0Z" fill="#E4F1E9"/>
<path d="M289.426 34.0496L85.1251 48.3357C56.917 50.3082 35.6488 74.7744 37.6213 102.983L51.9075 307.284C53.88 335.492 78.3462 356.76 106.554 354.787L310.855 340.501C339.064 338.529 360.332 314.063 358.359 285.854L344.073 81.5533C342.101 53.3452 317.634 32.0771 289.426 34.0496Z" fill="#C3F73A"/>
<path d="M118.854 152.611C118.114 159.645 121.131 166.782 127.239 172.452C133.348 178.123 142.049 181.862 151.427 182.848C160.805 183.834 170.093 181.985 177.247 177.708C184.401 173.432 188.836 167.078 189.575 160.044" fill="black"/>
<path d="M133.922 111.293C134.332 107.387 132.29 103.971 129.361 103.663C126.431 103.356 123.724 106.272 123.313 110.178C122.903 114.084 124.945 117.5 127.874 117.808C130.804 118.116 133.511 115.199 133.922 111.293Z" fill="black"/>
<path d="M190.499 117.239C190.909 113.334 188.867 109.918 185.938 109.61C183.009 109.302 180.301 112.219 179.89 116.124C179.48 120.03 181.522 123.446 184.451 123.754C187.381 124.062 190.088 121.145 190.499 117.239Z" fill="black"/>
</g>
</g>
</g>
<defs>
<clipPath id="clip0_422_1214">
<rect width="256" height="256" rx="128" fill="white"/>
</clipPath>
<clipPath id="clip1_422_1214">
<rect width="256" height="256" fill="white"/>
</clipPath>
</defs>
</svg>
