<svg width="256" height="256" viewBox="0 0 256 256" fill="none" xmlns="http://www.w3.org/2000/svg">
<g clip-path="url(#clip0_422_1200)">
<rect width="256" height="256" rx="128" fill="white"/>
<g clip-path="url(#clip1_422_1200)">
<mask id="mask0_422_1200" style="mask-type:luminance" maskUnits="userSpaceOnUse" x="0" y="0" width="256" height="256">
<path d="M256 128C256 57.3075 198.692 0 128 0C57.3075 0 0 57.3075 0 128C0 198.692 57.3075 256 128 256C198.692 256 256 198.692 256 128Z" fill="white"/>
</mask>
<g mask="url(#mask0_422_1200)">
<path d="M256 0H0V256H256V0Z" fill="#E4F1E9"/>
<path d="M239.415 38.4872C172.761 -1.56305 86.259 20.0042 46.2088 86.659C6.15853 153.314 27.7258 239.815 94.3806 279.866C161.035 319.916 247.537 298.348 287.587 231.694C327.637 165.039 306.07 78.5374 239.415 38.4872Z" fill="#C3F73A"/>
<path d="M57.1426 164.174C57.266 171.245 61.1298 177.962 67.8841 182.845C74.6383 187.729 83.7296 190.38 93.1581 190.216C102.587 190.051 111.58 187.084 118.16 181.968C124.739 176.851 128.366 170.004 128.243 162.933" fill="black"/>
<path d="M67.1866 128.438C67.1181 124.511 64.6751 121.369 61.73 121.421C58.7849 121.472 56.453 124.697 56.5216 128.624C56.5901 132.55 59.0331 135.692 61.9782 135.641C64.9233 135.589 67.2552 132.364 67.1866 128.438Z" fill="black"/>
<path d="M124.067 127.445C123.999 123.518 121.556 120.377 118.611 120.428C115.666 120.479 113.334 123.704 113.402 127.631C113.471 131.558 115.914 134.699 118.859 134.648C121.804 134.597 124.136 131.372 124.067 127.445Z" fill="black"/>
</g>
</g>
</g>
<defs>
<clipPath id="clip0_422_1200">
<rect width="256" height="256" rx="128" fill="white"/>
</clipPath>
<clipPath id="clip1_422_1200">
<rect width="256" height="256" fill="white"/>
</clipPath>
</defs>
</svg>
