<svg width="256" height="256" viewBox="0 0 256 256" fill="none" xmlns="http://www.w3.org/2000/svg">
<g clip-path="url(#clip0_422_1186)">
<rect width="256" height="256" rx="128" fill="white"/>
<g clip-path="url(#clip1_422_1186)">
<g clip-path="url(#clip2_422_1186)">
<mask id="mask0_422_1186" style="mask-type:luminance" maskUnits="userSpaceOnUse" x="0" y="0" width="256" height="256">
<path d="M256 128C256 57.3075 198.692 0 128 0C57.3075 0 0 57.3075 0 128C0 198.692 57.3075 256 128 256C198.692 256 256 198.692 256 128Z" fill="white"/>
</mask>
<g mask="url(#mask0_422_1186)">
<path d="M256 0H0V256H256V0Z" fill="#68B684"/>
<path d="M101.643 290.992L287.255 204.439C312.883 192.489 323.971 162.026 312.02 136.398L225.468 -49.2135C213.518 -74.8412 183.055 -85.9288 157.427 -73.9784L-28.1849 12.5738C-53.8126 24.5242 -64.9002 54.9871 -52.9498 80.6148L33.6024 266.227C45.5527 291.854 76.0157 302.942 101.643 290.992Z" fill="#0C2524"/>
<path d="M129.941 122.667C144.729 128.511 158.897 127.272 172.446 118.948" stroke="white" stroke-width="2.22222" stroke-linecap="round"/>
<path d="M129.764 79.8526C129.422 75.9402 126.766 72.9767 123.832 73.2334C120.897 73.4901 118.796 76.8699 119.138 80.7823C119.481 84.6947 122.137 87.6582 125.071 87.4015C128.005 87.1448 130.107 83.765 129.764 79.8526Z" fill="white"/>
<path d="M172.268 76.1339C171.926 72.2215 169.27 69.2579 166.335 69.5147C163.401 69.7714 161.3 73.1511 161.642 77.0635C161.985 80.976 164.641 83.9395 167.575 83.6828C170.509 83.426 172.611 80.0463 172.268 76.1339Z" fill="white"/>
</g>
</g>
</g>
</g>
<defs>
<clipPath id="clip0_422_1186">
<rect width="256" height="256" rx="128" fill="white"/>
</clipPath>
<clipPath id="clip1_422_1186">
<rect width="256" height="256" fill="white"/>
</clipPath>
<clipPath id="clip2_422_1186">
<rect width="256" height="256" fill="white"/>
</clipPath>
</defs>
</svg>
