<svg width="256" height="256" viewBox="0 0 256 256" fill="none" xmlns="http://www.w3.org/2000/svg">
<g clip-path="url(#clip0_422_1432)">
<rect width="256" height="256" rx="128" fill="white"/>
<g clip-path="url(#clip1_422_1432)">
<mask id="mask0_422_1432" style="mask-type:luminance" maskUnits="userSpaceOnUse" x="0" y="0" width="256" height="256">
<path d="M256 128C256 57.3075 198.692 0 128 0C57.3075 0 0 57.3075 0 128C0 198.692 57.3075 256 128 256C198.692 256 256 198.692 256 128Z" fill="white"/>
</mask>
<g mask="url(#mask0_422_1432)">
<path d="M256 0H0V256H256V0Z" fill="#E4F1E9"/>
<path d="M129.31 37.1316C59.4874 48.1903 11.8503 113.757 22.909 183.579C33.9677 253.401 99.5346 301.039 169.357 289.98C239.179 278.921 286.816 213.354 275.757 143.532C264.698 73.71 199.132 26.0728 129.31 37.1316Z" fill="#C3F73A"/>
<path d="M57.0186 142.842C57.142 149.913 61.0058 156.63 67.76 161.513C74.5143 166.397 83.6056 169.048 93.0341 168.884C102.463 168.719 111.456 165.752 118.036 160.636C124.615 155.519 128.242 148.672 128.119 141.601" fill="black"/>
<path d="M67.1866 114.215C67.1181 110.289 64.6751 107.147 61.73 107.198C58.7849 107.25 56.453 110.475 56.5216 114.402C56.5901 118.328 59.0331 121.47 61.9782 121.418C64.9233 121.367 67.2552 118.142 67.1866 114.215Z" fill="black"/>
<path d="M124.067 113.223C123.999 109.296 121.556 106.154 118.611 106.206C115.666 106.257 113.334 109.482 113.402 113.409C113.471 117.336 115.914 120.477 118.859 120.426C121.804 120.374 124.136 117.149 124.067 113.223Z" fill="black"/>
</g>
</g>
</g>
<defs>
<clipPath id="clip0_422_1432">
<rect width="256" height="256" rx="128" fill="white"/>
</clipPath>
<clipPath id="clip1_422_1432">
<rect width="256" height="256" fill="white"/>
</clipPath>
</defs>
</svg>
