<svg width="256" height="256" viewBox="0 0 256 256" fill="none" xmlns="http://www.w3.org/2000/svg">
<g clip-path="url(#clip0_422_1445)">
<rect width="256" height="256" rx="128" fill="white"/>
<g clip-path="url(#clip1_422_1445)">
<mask id="mask0_422_1445" style="mask-type:luminance" maskUnits="userSpaceOnUse" x="0" y="0" width="256" height="256">
<path d="M256 128C256 57.3075 198.692 0 128 0C57.3075 0 0 57.3075 0 128C0 198.692 57.3075 256 128 256C198.692 256 256 198.692 256 128Z" fill="white"/>
</mask>
<g mask="url(#mask0_422_1445)">
<path d="M256 0H0V256H256V0Z" fill="#68B684"/>
<path d="M195.722 7.40075C119.142 -6.10243 46.1149 45.0317 32.6118 121.612C19.1086 198.192 70.2427 271.219 146.823 284.723C223.403 298.226 296.43 247.092 309.934 170.511C323.437 93.931 272.303 20.9039 195.722 7.40075Z" fill="#0C2524"/>
<path d="M106.667 128C120.889 135.111 135.111 135.111 149.334 128" stroke="white" stroke-width="2.22222" stroke-linecap="round"/>
<path d="M110.222 92.4446C110.222 88.5172 107.835 85.3335 104.889 85.3335C101.943 85.3335 99.5557 88.5172 99.5557 92.4446C99.5557 96.372 101.943 99.5557 104.889 99.5557C107.835 99.5557 110.222 96.372 110.222 92.4446Z" fill="white"/>
<path d="M152.889 92.4446C152.889 88.5172 150.502 85.3335 147.556 85.3335C144.61 85.3335 142.223 88.5172 142.223 92.4446C142.223 96.372 144.61 99.5557 147.556 99.5557C150.502 99.5557 152.889 96.372 152.889 92.4446Z" fill="white"/>
</g>
</g>
</g>
<defs>
<clipPath id="clip0_422_1445">
<rect width="256" height="256" rx="128" fill="white"/>
</clipPath>
<clipPath id="clip1_422_1445">
<rect width="256" height="256" fill="white"/>
</clipPath>
</defs>
</svg>
