<svg width="256" height="256" viewBox="0 0 256 256" fill="none" xmlns="http://www.w3.org/2000/svg">
<g clip-path="url(#clip0_422_1458)">
<rect width="256" height="256" rx="128" fill="white"/>
<g clip-path="url(#clip1_422_1458)">
<mask id="mask0_422_1458" style="mask-type:luminance" maskUnits="userSpaceOnUse" x="0" y="0" width="256" height="256">
<path d="M256 128C256 57.3075 198.692 0 128 0C57.3075 0 0 57.3075 0 128C0 198.692 57.3075 256 128 256C198.692 256 256 198.692 256 128Z" fill="white"/>
</mask>
<g mask="url(#mask0_422_1458)">
<path d="M256 0H0V256H256V0Z" fill="#E4F1E9"/>
<path d="M111.733 -57.3794L21.9544 126.694C9.55856 152.109 20.1128 182.761 45.528 195.157L229.601 284.935C255.016 297.331 285.668 286.776 298.064 261.361L387.842 77.2883C400.238 51.8731 389.684 21.2212 364.269 8.82538L180.196 -80.953C154.78 -93.3488 124.129 -82.7946 111.733 -57.3794Z" fill="#C3F73A"/>
<path d="M104.554 118.542C117.955 127.101 132.099 128.588 146.987 123.002" stroke="black" stroke-width="2.22222" stroke-linecap="round"/>
<path d="M105.477 75.7379C105.888 71.8321 103.846 68.4162 100.916 68.1083C97.987 67.8004 95.2795 70.7171 94.869 74.6229C94.4585 78.5288 96.5004 81.9447 99.4298 82.2526C102.359 82.5605 105.067 79.6438 105.477 75.7379Z" fill="black"/>
<path d="M162.054 81.6842C162.465 77.7784 160.423 74.3624 157.494 74.0546C154.564 73.7467 151.857 76.6634 151.446 80.5692C151.036 84.4751 153.078 87.891 156.007 88.1989C158.936 88.5068 161.644 85.59 162.054 81.6842Z" fill="black"/>
</g>
</g>
</g>
<defs>
<clipPath id="clip0_422_1458">
<rect width="256" height="256" rx="128" fill="white"/>
</clipPath>
<clipPath id="clip1_422_1458">
<rect width="256" height="256" fill="white"/>
</clipPath>
</defs>
</svg>
