<svg width="256" height="256" viewBox="0 0 256 256" fill="none" xmlns="http://www.w3.org/2000/svg">
<g clip-path="url(#clip0_422_1471)">
<rect width="256" height="256" rx="128" fill="white"/>
<g clip-path="url(#clip1_422_1471)">
<mask id="mask0_422_1471" style="mask-type:luminance" maskUnits="userSpaceOnUse" x="0" y="0" width="256" height="256">
<path d="M256 128C256 57.3075 198.692 0 128 0C57.3075 0 0 57.3075 0 128C0 198.692 57.3075 256 128 256C198.692 256 256 198.692 256 128Z" fill="white"/>
</mask>
<g mask="url(#mask0_422_1471)">
<path d="M256 0H0V256H256V0Z" fill="#C3F73A"/>
<path d="M64.1783 194.921L226.492 247.66C248.903 254.942 272.973 242.677 280.255 220.266L332.994 57.9527C340.276 35.5418 328.011 11.4712 305.6 4.18953L143.287 -48.5494C120.876 -55.8311 96.8052 -43.5665 89.5235 -21.1557L36.7846 141.158C29.5028 163.569 41.7674 187.639 64.1783 194.921Z" fill="#68B684"/>
<path d="M136.309 130.9C151.382 135.962 165.466 133.983 178.56 124.962" stroke="black" stroke-width="2.22222" stroke-linecap="round"/>
<path d="M114.745 105.206C114.198 101.317 111.391 98.4967 108.474 98.9067C105.557 99.3166 103.635 102.802 104.182 106.691C104.729 110.58 107.536 113.4 110.453 112.99C113.37 112.581 115.292 109.095 114.745 105.206Z" fill="black"/>
<path d="M199.248 93.3303C198.701 89.4412 195.894 86.6208 192.977 87.0307C190.06 87.4406 188.138 90.9257 188.685 94.8149C189.232 98.704 192.039 101.524 194.956 101.115C197.873 100.705 199.794 97.2195 199.248 93.3303Z" fill="black"/>
</g>
</g>
</g>
<defs>
<clipPath id="clip0_422_1471">
<rect width="256" height="256" rx="128" fill="white"/>
</clipPath>
<clipPath id="clip1_422_1471">
<rect width="256" height="256" fill="white"/>
</clipPath>
</defs>
</svg>
