<svg width="256" height="256" viewBox="0 0 256 256" fill="none" xmlns="http://www.w3.org/2000/svg">
<g clip-path="url(#clip0_422_1484)">
<rect width="256" height="256" rx="128" fill="white"/>
<g clip-path="url(#clip1_422_1484)">
<mask id="mask0_422_1484" style="mask-type:luminance" maskUnits="userSpaceOnUse" x="0" y="0" width="256" height="256">
<path d="M256 128C256 57.3075 198.692 0 128 0C57.3075 0 0 57.3075 0 128C0 198.692 57.3075 256 128 256C198.692 256 256 198.692 256 128Z" fill="white"/>
</mask>
<g mask="url(#mask0_422_1484)">
<path d="M256 0H0V256H256V0Z" fill="#0C2524"/>
<path d="M223.591 -2.44302L42.7636 93.7048C17.7965 106.98 8.31835 137.982 21.5936 162.949L117.741 343.776C131.017 368.743 162.018 378.221 186.985 364.946L367.813 268.798C392.78 255.523 402.258 224.522 388.983 199.555L292.835 18.7269C279.56 -6.24015 248.558 -15.7183 223.591 -2.44302Z" fill="#95E06C"/>
<path d="M121.654 171.895C121.901 178.963 125.882 185.611 132.72 190.376C139.558 195.141 148.695 197.633 158.119 197.304C167.543 196.975 176.483 193.852 182.973 188.621C189.462 183.39 192.969 176.481 192.722 169.413" fill="black"/>
<path d="M123.719 129.13C123.582 125.205 121.084 122.106 118.141 122.209C115.197 122.312 112.922 125.577 113.059 129.502C113.196 133.427 115.693 136.525 118.637 136.422C121.581 136.32 123.856 133.055 123.719 129.13Z" fill="black"/>
<path d="M194.786 126.648C194.649 122.723 192.152 119.624 189.208 119.727C186.264 119.83 183.989 123.095 184.126 127.02C184.263 130.945 186.761 134.043 189.704 133.941C192.648 133.838 194.923 130.573 194.786 126.648Z" fill="black"/>
</g>
</g>
</g>
<defs>
<clipPath id="clip0_422_1484">
<rect width="256" height="256" rx="128" fill="white"/>
</clipPath>
<clipPath id="clip1_422_1484">
<rect width="256" height="256" fill="white"/>
</clipPath>
</defs>
</svg>
