<svg width="256" height="256" viewBox="0 0 256 256" fill="none" xmlns="http://www.w3.org/2000/svg">
<g clip-path="url(#clip0_422_1497)">
<rect width="256" height="256" rx="128" fill="white"/>
<g clip-path="url(#clip1_422_1497)">
<mask id="mask0_422_1497" style="mask-type:luminance" maskUnits="userSpaceOnUse" x="0" y="0" width="256" height="256">
<path d="M256 128C256 57.3075 198.692 0 128 0C57.3075 0 0 57.3075 0 128C0 198.692 57.3075 256 128 256C198.692 256 256 198.692 256 128Z" fill="white"/>
</mask>
<g mask="url(#mask0_422_1497)">
<path d="M256 0H0V256H256V0Z" fill="#E4F1E9"/>
<path d="M30.8848 12.4469C-24.7693 76.4696 -17.9852 173.487 46.0375 229.141C110.06 284.795 207.078 278.011 262.732 213.988C318.386 149.965 311.602 52.9483 247.579 -2.70585C183.556 -58.36 86.5389 -51.5759 30.8848 12.4469Z" fill="#C3F73A"/>
<path d="M71.4873 135.48C85.8315 142.342 100.052 142.094 114.147 134.735" stroke="black" stroke-width="2.22222" stroke-linecap="round"/>
<path d="M67.1876 92.8819C67.119 88.9551 64.676 85.8135 61.731 85.8649C58.7859 85.9163 56.454 89.1413 56.5225 93.068C56.5911 96.9948 59.0341 100.136 61.9792 100.085C64.9242 100.034 67.2561 96.8086 67.1876 92.8819Z" fill="black"/>
<path d="M124.067 91.8892C123.999 87.9624 121.556 84.8208 118.611 84.8723C115.666 84.9237 113.334 88.1486 113.402 92.0754C113.471 96.0021 115.914 99.1437 118.859 99.0923C121.804 99.0409 124.136 95.816 124.067 91.8892Z" fill="black"/>
</g>
</g>
</g>
<defs>
<clipPath id="clip0_422_1497">
<rect width="256" height="256" rx="128" fill="white"/>
</clipPath>
<clipPath id="clip1_422_1497">
<rect width="256" height="256" fill="white"/>
</clipPath>
</defs>
</svg>
