<svg width="256" height="256" viewBox="0 0 256 256" fill="none" xmlns="http://www.w3.org/2000/svg">
<g clip-path="url(#clip0_422_1510)">
<rect width="256" height="256" rx="128" fill="white"/>
<g clip-path="url(#clip1_422_1510)">
<mask id="mask0_422_1510" style="mask-type:luminance" maskUnits="userSpaceOnUse" x="0" y="0" width="256" height="256">
<path d="M256 128C256 57.3075 198.692 0 128 0C57.3075 0 0 57.3075 0 128C0 198.692 57.3075 256 128 256C198.692 256 256 198.692 256 128Z" fill="white"/>
</mask>
<g mask="url(#mask0_422_1510)">
<path d="M256 0H0V256H256V0Z" fill="#0C2524"/>
<path d="M13.3036 226.702C61.1785 287.979 149.664 298.843 210.941 250.968C272.218 203.093 283.082 114.608 235.207 53.3313C187.333 -7.94576 98.8474 -18.8104 37.5704 29.0645C-23.7067 76.9394 -34.5713 165.425 13.3036 226.702Z" fill="#95E06C"/>
<path d="M63.5166 105.914C77.482 113.517 91.6955 114.013 106.157 107.403" stroke="black" stroke-width="2.22222" stroke-linecap="round"/>
<path d="M54.0975 70.0074C54.2346 66.0824 51.9594 62.8172 49.0156 62.7145C46.0719 62.6117 43.5744 65.7101 43.4374 69.6351C43.3003 73.5601 45.5756 76.8252 48.5193 76.928C51.463 77.0308 53.9605 73.9323 54.0975 70.0074Z" fill="black"/>
<path d="M125.165 72.4893C125.302 68.5643 123.027 65.2992 120.083 65.1964C117.139 65.0936 114.642 68.1921 114.505 72.117C114.368 76.042 116.643 79.3071 119.587 79.4099C122.53 79.5127 125.028 76.4143 125.165 72.4893Z" fill="black"/>
</g>
</g>
</g>
<defs>
<clipPath id="clip0_422_1510">
<rect width="256" height="256" rx="128" fill="white"/>
</clipPath>
<clipPath id="clip1_422_1510">
<rect width="256" height="256" fill="white"/>
</clipPath>
</defs>
</svg>
