<svg width="256" height="256" viewBox="0 0 256 256" fill="none" xmlns="http://www.w3.org/2000/svg">
<g clip-path="url(#clip0_422_1523)">
<rect width="256" height="256" rx="128" fill="white"/>
<g clip-path="url(#clip1_422_1523)">
<mask id="mask0_422_1523" style="mask-type:luminance" maskUnits="userSpaceOnUse" x="0" y="0" width="256" height="256">
<path d="M256 128C256 57.3075 198.692 0 128 0C57.3075 0 0 57.3075 0 128C0 198.692 57.3075 256 128 256C198.692 256 256 198.692 256 128Z" fill="white"/>
</mask>
<g mask="url(#mask0_422_1523)">
<path d="M256 0H0V256H256V0Z" fill="#0C2524"/>
<path d="M339.998 139.746L190.068 26.7652C169.367 11.1658 139.939 15.3016 124.34 36.0026L11.359 185.933C-4.24035 206.634 -0.104616 236.062 20.5965 251.661L170.527 364.642C191.228 380.241 220.655 376.105 236.255 355.404L349.236 205.474C364.835 184.773 360.699 155.345 339.998 139.746Z" fill="#95E06C"/>
<path d="M119.332 171.338C120.194 178.358 124.739 184.633 131.966 188.784C139.194 192.935 148.513 194.622 157.872 193.473C167.232 192.323 175.866 188.433 181.875 182.656C187.884 176.88 190.775 169.691 189.913 162.672" fill="black"/>
<path d="M118.528 135.614C118.049 131.716 115.291 128.847 112.368 129.206C109.444 129.565 107.462 133.016 107.941 136.914C108.419 140.812 111.177 143.681 114.101 143.322C117.025 142.963 119.007 139.512 118.528 135.614Z" fill="black"/>
<path d="M189.109 126.948C188.63 123.05 185.872 120.181 182.949 120.539C180.025 120.898 178.043 124.349 178.522 128.248C179.001 132.146 181.759 135.015 184.682 134.656C187.606 134.297 189.588 130.846 189.109 126.948Z" fill="black"/>
</g>
</g>
</g>
<defs>
<clipPath id="clip0_422_1523">
<rect width="256" height="256" rx="128" fill="white"/>
</clipPath>
<clipPath id="clip1_422_1523">
<rect width="256" height="256" fill="white"/>
</clipPath>
</defs>
</svg>
