<svg width="256" height="256" viewBox="0 0 256 256" fill="none" xmlns="http://www.w3.org/2000/svg">
<g clip-path="url(#clip0_422_1536)">
<rect width="256" height="256" rx="128" fill="white"/>
<g clip-path="url(#clip1_422_1536)">
<mask id="mask0_422_1536" style="mask-type:luminance" maskUnits="userSpaceOnUse" x="0" y="0" width="256" height="256">
<path d="M256 128C256 57.3075 198.692 0 128 0C57.3075 0 0 57.3075 0 128C0 198.692 57.3075 256 128 256C198.692 256 256 198.692 256 128Z" fill="white"/>
</mask>
<g mask="url(#mask0_422_1536)">
<path d="M256 0H0V256H256V0Z" fill="#95E06C"/>
<path d="M45.1307 138.217L177.764 245.621C196.076 260.451 222.943 257.627 237.773 239.314L345.177 106.681C360.006 88.3682 357.182 61.5012 338.87 46.6718L206.237 -60.7322C187.924 -75.5616 161.057 -72.7378 146.228 -54.425L38.8235 78.2079C23.9941 96.5207 26.8179 123.388 45.1307 138.217Z" fill="#E4F1E9"/>
<path d="M137.816 103.242C150.751 112.49 164.798 114.715 179.958 109.916" stroke="black" stroke-width="2.22222" stroke-linecap="round"/>
<path d="M117.684 71.2542C118.298 67.3752 116.438 63.8571 113.528 63.3963C110.619 62.9355 107.763 65.7066 107.148 69.5856C106.534 73.4646 108.394 76.9827 111.304 77.4435C114.213 77.9042 117.069 75.1332 117.684 71.2542Z" fill="black"/>
<path d="M216.014 86.8279C216.628 82.9489 214.768 79.4308 211.858 78.9701C208.949 78.5093 206.093 81.2803 205.478 85.1593C204.864 89.0383 206.724 92.5564 209.634 93.0172C212.543 93.478 215.399 90.7069 216.014 86.8279Z" fill="black"/>
</g>
</g>
</g>
<defs>
<clipPath id="clip0_422_1536">
<rect width="256" height="256" rx="128" fill="white"/>
</clipPath>
<clipPath id="clip1_422_1536">
<rect width="256" height="256" fill="white"/>
</clipPath>
</defs>
</svg>
