<svg width="256" height="256" viewBox="0 0 256 256" fill="none" xmlns="http://www.w3.org/2000/svg">
<g clip-path="url(#clip0_422_1549)">
<rect width="256" height="256" rx="128" fill="white"/>
<g clip-path="url(#clip1_422_1549)">
<mask id="mask0_422_1549" style="mask-type:luminance" maskUnits="userSpaceOnUse" x="0" y="0" width="256" height="256">
<path d="M256 128C256 57.3075 198.692 0 128 0C57.3075 0 0 57.3075 0 128C0 198.692 57.3075 256 128 256C198.692 256 256 198.692 256 128Z" fill="white"/>
</mask>
<g mask="url(#mask0_422_1549)">
<path d="M256 0H0V256H256V0Z" fill="#C3F73A"/>
<path d="M-25.6474 211.501C-10.9496 280.649 57.0205 324.789 126.168 310.092C195.316 295.394 239.456 227.424 224.758 158.276C210.061 89.1284 142.09 44.9881 72.9428 59.6859C3.79515 74.3837 -40.3452 142.354 -25.6474 211.501Z" fill="#68B684"/>
<path d="M93.7803 168.435C94.7646 175.438 99.4181 181.634 106.717 185.658C114.016 189.682 123.363 191.206 132.701 189.893C142.039 188.581 150.604 184.54 156.511 178.66C162.418 172.78 165.184 165.541 164.199 158.538" fill="black"/>
<path d="M86.3006 140.762C85.754 136.873 82.9463 134.052 80.0295 134.462C77.1126 134.872 75.1911 138.357 75.7377 142.246C76.2843 146.136 79.092 148.956 82.0088 148.546C84.9257 148.136 86.8472 144.651 86.3006 140.762Z" fill="black"/>
<path d="M170.804 128.886C170.257 124.997 167.449 122.176 164.532 122.586C161.616 122.996 159.694 126.481 160.241 130.371C160.787 134.26 163.595 137.08 166.512 136.67C169.429 136.26 171.35 132.775 170.804 128.886Z" fill="black"/>
</g>
</g>
</g>
<defs>
<clipPath id="clip0_422_1549">
<rect width="256" height="256" rx="128" fill="white"/>
</clipPath>
<clipPath id="clip1_422_1549">
<rect width="256" height="256" fill="white"/>
</clipPath>
</defs>
</svg>
