<svg width="256" height="256" viewBox="0 0 256 256" fill="none" xmlns="http://www.w3.org/2000/svg">
<g clip-path="url(#clip0_422_1684)">
<rect width="256" height="256" rx="128" fill="white"/>
<g clip-path="url(#clip1_422_1684)">
<mask id="mask0_422_1684" style="mask-type:luminance" maskUnits="userSpaceOnUse" x="0" y="0" width="256" height="256">
<path d="M256 128C256 57.3075 198.692 0 128 0C57.3075 0 0 57.3075 0 128C0 198.692 57.3075 256 128 256C198.692 256 256 198.692 256 128Z" fill="white"/>
</mask>
<g mask="url(#mask0_422_1684)">
<path d="M256 0H0V256H256V0Z" fill="#68B684"/>
<path d="M329.589 134.847L221.909 -18.9348C207.042 -40.1677 177.777 -45.3279 156.544 -30.4605L2.76157 77.2189C-18.4713 92.0863 -23.6315 121.351 -8.76411 142.584L98.9153 296.366C113.783 317.599 143.048 322.76 164.281 307.892L318.063 200.213C339.296 185.345 344.456 156.08 329.589 134.847Z" fill="#0C2524"/>
<path d="M157.766 101.361C172.554 107.205 186.722 105.966 200.27 97.6422" stroke="white" stroke-width="2.22222" stroke-linecap="round"/>
<path d="M158.209 65.6305C157.866 61.7181 155.21 58.7545 152.276 59.0112C149.342 59.268 147.24 62.6477 147.583 66.5601C147.925 70.4725 150.581 73.4361 153.515 73.1793C156.45 72.9226 158.551 69.5429 158.209 65.6305Z" fill="white"/>
<path d="M200.713 61.9117C200.37 57.9993 197.714 55.0358 194.78 55.2925C191.846 55.5492 189.744 58.929 190.087 62.8414C190.429 66.7538 193.085 69.7173 196.019 69.4606C198.954 69.2039 201.055 65.8241 200.713 61.9117Z" fill="white"/>
</g>
</g>
</g>
<defs>
<clipPath id="clip0_422_1684">
<rect width="256" height="256" rx="128" fill="white"/>
</clipPath>
<clipPath id="clip1_422_1684">
<rect width="256" height="256" fill="white"/>
</clipPath>
</defs>
</svg>
