<svg width="256" height="256" viewBox="0 0 256 256" fill="none" xmlns="http://www.w3.org/2000/svg">
<g clip-path="url(#clip0_422_1696)">
<rect width="256" height="256" rx="128" fill="white"/>
<g clip-path="url(#clip1_422_1696)">
<mask id="mask0_422_1696" style="mask-type:luminance" maskUnits="userSpaceOnUse" x="0" y="0" width="256" height="256">
<path d="M256 128C256 57.3075 198.692 0 128 0C57.3075 0 0 57.3075 0 128C0 198.692 57.3075 256 128 256C198.692 256 256 198.692 256 128Z" fill="white"/>
</mask>
<g mask="url(#mask0_422_1696)">
<path d="M256 0H0V256H256V0Z" fill="#95E06C"/>
<path d="M231.554 109.652C190.002 52.461 109.955 39.7828 52.7632 81.3348C-4.42823 122.887 -17.1065 202.934 24.4455 260.125C65.9975 317.317 146.045 329.995 203.236 288.443C260.428 246.891 273.106 166.844 231.554 109.652Z" fill="#E4F1E9"/>
<path d="M63.5898 161.058C63.0965 168.113 66.3602 175.141 72.6631 180.595C78.966 186.049 87.7917 189.482 97.1986 190.14C106.606 190.798 115.823 188.626 122.824 184.102C129.824 179.579 134.034 173.074 134.528 166.019" fill="black"/>
<path d="M54.9337 131.939C55.2077 128.021 53.0477 124.679 50.1094 124.473C47.1711 124.268 44.567 127.277 44.293 131.195C44.0191 135.113 46.179 138.455 49.1173 138.661C52.0557 138.866 54.6597 135.857 54.9337 131.939Z" fill="black"/>
<path d="M154.247 138.884C154.521 134.966 152.361 131.623 149.423 131.418C146.485 131.212 143.88 134.222 143.606 138.14C143.333 142.057 145.492 145.4 148.431 145.606C151.369 145.811 153.973 142.802 154.247 138.884Z" fill="black"/>
</g>
</g>
</g>
<defs>
<clipPath id="clip0_422_1696">
<rect width="256" height="256" rx="128" fill="white"/>
</clipPath>
<clipPath id="clip1_422_1696">
<rect width="256" height="256" fill="white"/>
</clipPath>
</defs>
</svg>
