<svg width="256" height="256" viewBox="0 0 256 256" fill="none" xmlns="http://www.w3.org/2000/svg">
<g clip-path="url(#clip0_422_1708)">
<rect width="256" height="256" rx="128" fill="white"/>
<g clip-path="url(#clip1_422_1708)">
<mask id="mask0_422_1708" style="mask-type:luminance" maskUnits="userSpaceOnUse" x="0" y="0" width="256" height="256">
<path d="M256 128C256 57.3075 198.692 0 128 0C57.3075 0 0 57.3075 0 128C0 198.692 57.3075 256 128 256C198.692 256 256 198.692 256 128Z" fill="white"/>
</mask>
<g mask="url(#mask0_422_1708)">
<path d="M256 0H0V256H256V0Z" fill="#0C2524"/>
<path d="M113.366 234.491C183.962 230.791 238.192 170.563 234.492 99.9676C230.792 29.3721 170.564 -24.8577 99.9684 -21.1579C29.3728 -17.4582 -24.8569 42.7701 -21.1572 113.366C-17.4574 183.961 42.7708 238.191 113.366 234.491Z" fill="#95E06C"/>
<path d="M56.1816 104.014C69.4312 112.806 83.5474 114.539 98.5303 109.214" stroke="black" stroke-width="2.22222" stroke-linecap="round"/>
<path d="M49.0614 74.4816C49.54 70.5835 47.558 67.1325 44.6344 66.7735C41.7108 66.4145 38.9528 69.2836 38.4742 73.1816C37.9956 77.0797 39.9776 80.5307 42.9011 80.8897C45.8247 81.2487 48.5827 78.3797 49.0614 74.4816Z" fill="black"/>
<path d="M119.642 83.1481C120.121 79.25 118.139 75.799 115.215 75.44C112.292 75.081 109.534 77.9501 109.055 81.8481C108.577 85.7462 110.559 89.1973 113.482 89.5562C116.406 89.9152 119.164 87.0462 119.642 83.1481Z" fill="black"/>
</g>
</g>
</g>
<defs>
<clipPath id="clip0_422_1708">
<rect width="256" height="256" rx="128" fill="white"/>
</clipPath>
<clipPath id="clip1_422_1708">
<rect width="256" height="256" fill="white"/>
</clipPath>
</defs>
</svg>
