<svg width="256" height="256" viewBox="0 0 256 256" fill="none" xmlns="http://www.w3.org/2000/svg">
<g clip-path="url(#clip0_422_1720)">
<rect width="256" height="256" rx="128" fill="white"/>
<g clip-path="url(#clip1_422_1720)">
<mask id="mask0_422_1720" style="mask-type:luminance" maskUnits="userSpaceOnUse" x="0" y="0" width="256" height="256">
<path d="M256 128C256 57.3075 198.692 0 128 0C57.3075 0 0 57.3075 0 128C0 198.692 57.3075 256 128 256C198.692 256 256 198.692 256 128Z" fill="white"/>
</mask>
<g mask="url(#mask0_422_1720)">
<path d="M256 0H0V256H256V0Z" fill="#C3F73A"/>
<path d="M198.644 300.418L326.678 163.118C344.356 144.161 343.319 114.463 324.362 96.785L187.062 -31.2488C168.105 -48.9266 138.407 -47.8895 120.729 -28.9324L-7.30497 108.367C-24.9827 127.324 -23.9456 157.023 -4.98856 174.7L132.311 302.734C151.268 320.412 180.966 319.375 198.644 300.418Z" fill="#68B684"/>
<path d="M132.329 114.875C146.904 121.232 161.107 120.487 174.937 112.642" stroke="black" stroke-width="2.22222" stroke-linecap="round"/>
<path d="M112.715 80.298C112.509 76.376 109.958 73.3216 107.016 73.4758C104.075 73.6299 101.857 76.9343 102.063 80.8562C102.268 84.7782 104.819 87.8326 107.761 87.6785C110.702 87.5243 112.92 84.22 112.715 80.298Z" fill="black"/>
<path d="M197.931 75.8322C197.726 71.9102 195.175 68.8558 192.233 69.0099C189.292 69.1641 187.074 72.4685 187.279 76.3904C187.485 80.3124 190.036 83.3668 192.978 83.2127C195.919 83.0585 198.137 79.7542 197.931 75.8322Z" fill="black"/>
</g>
</g>
</g>
<defs>
<clipPath id="clip0_422_1720">
<rect width="256" height="256" rx="128" fill="white"/>
</clipPath>
<clipPath id="clip1_422_1720">
<rect width="256" height="256" fill="white"/>
</clipPath>
</defs>
</svg>
