<svg width="256" height="256" viewBox="0 0 256 256" fill="none" xmlns="http://www.w3.org/2000/svg">
<g clip-path="url(#clip0_422_1732)">
<rect width="256" height="256" rx="128" fill="white"/>
<g clip-path="url(#clip1_422_1732)">
<mask id="mask0_422_1732" style="mask-type:luminance" maskUnits="userSpaceOnUse" x="0" y="0" width="256" height="256">
<path d="M256 128C256 57.3075 198.692 0 128 0C57.3075 0 0 57.3075 0 128C0 198.692 57.3075 256 128 256C198.692 256 256 198.692 256 128Z" fill="white"/>
</mask>
<g mask="url(#mask0_422_1732)">
<path d="M256 0H0V256H256V0Z" fill="#C3F73A"/>
<path d="M-74.3373 49.2649C-86.1435 133.27 -27.6145 210.941 56.3909 222.747C140.396 234.553 218.067 176.024 229.873 92.0188C241.679 8.01347 183.15 -69.6571 99.1449 -81.4633C15.1395 -93.2695 -62.5311 -34.7405 -74.3373 49.2649Z" fill="#68B684"/>
<path d="M81.3994 137.872C96.4729 142.935 110.557 140.955 123.651 131.934" stroke="black" stroke-width="2.22222" stroke-linecap="round"/>
<path d="M57.8562 98.095C57.3097 94.2059 54.502 91.3854 51.5851 91.7953C48.6683 92.2053 46.7468 95.6904 47.2934 99.5795C47.84 103.469 50.6476 106.289 53.5645 105.879C56.4813 105.469 58.4028 101.984 57.8562 98.095Z" fill="black"/>
<path d="M142.359 86.219C141.813 82.3299 139.005 79.5094 136.088 79.9194C133.171 80.3293 131.25 83.8144 131.796 87.7035C132.343 91.5927 135.151 94.4131 138.067 94.0032C140.984 93.5932 142.906 90.1082 142.359 86.219Z" fill="black"/>
</g>
</g>
</g>
<defs>
<clipPath id="clip0_422_1732">
<rect width="256" height="256" rx="128" fill="white"/>
</clipPath>
<clipPath id="clip1_422_1732">
<rect width="256" height="256" fill="white"/>
</clipPath>
</defs>
</svg>
