<svg width="256" height="256" viewBox="0 0 256 256" fill="none" xmlns="http://www.w3.org/2000/svg">
<g clip-path="url(#clip0_422_1744)">
<rect width="256" height="256" rx="128" fill="white"/>
<g clip-path="url(#clip1_422_1744)">
<mask id="mask0_422_1744" style="mask-type:luminance" maskUnits="userSpaceOnUse" x="0" y="0" width="256" height="256">
<path d="M256 128C256 57.3075 198.692 0 128 0C57.3075 0 0 57.3075 0 128C0 198.692 57.3075 256 128 256C198.692 256 256 198.692 256 128Z" fill="white"/>
</mask>
<g mask="url(#mask0_422_1744)">
<path d="M256 0H0V256H256V0Z" fill="#C3F73A"/>
<path d="M195.7 24.9885L43.6344 102.47C22.6386 113.167 14.2905 138.86 24.9884 159.856L102.469 311.921C113.167 332.917 138.86 341.265 159.856 330.567L311.921 253.086C332.917 242.388 341.265 216.695 330.567 195.7L253.086 43.6346C242.388 22.6387 216.695 14.2906 195.7 24.9885Z" fill="#68B684"/>
<path d="M117.754 161.851C118.124 168.914 122.22 175.491 129.14 180.136C136.061 184.782 145.239 187.114 154.656 186.62C164.073 186.127 172.958 182.848 179.355 177.505C185.752 172.162 189.138 165.192 188.768 158.129" fill="black"/>
<path d="M112.715 133.631C112.509 129.71 109.958 126.655 107.016 126.809C104.075 126.963 101.857 130.268 102.063 134.19C102.268 138.112 104.819 141.166 107.761 141.012C110.702 140.858 112.92 137.553 112.715 133.631Z" fill="black"/>
<path d="M197.931 129.166C197.726 125.244 195.175 122.189 192.233 122.343C189.292 122.498 187.074 125.802 187.279 129.724C187.485 133.646 190.036 136.7 192.978 136.546C195.919 136.392 198.137 133.088 197.931 129.166Z" fill="black"/>
</g>
</g>
</g>
<defs>
<clipPath id="clip0_422_1744">
<rect width="256" height="256" rx="128" fill="white"/>
</clipPath>
<clipPath id="clip1_422_1744">
<rect width="256" height="256" fill="white"/>
</clipPath>
</defs>
</svg>
