<svg width="256" height="256" viewBox="0 0 256 256" fill="none" xmlns="http://www.w3.org/2000/svg">
<g clip-path="url(#clip0_422_1756)">
<rect width="256" height="256" rx="128" fill="white"/>
<g clip-path="url(#clip1_422_1756)">
<mask id="mask0_422_1756" style="mask-type:luminance" maskUnits="userSpaceOnUse" x="0" y="0" width="256" height="256">
<path d="M256 128C256 57.3075 198.692 0 128 0C57.3075 0 0 57.3075 0 128C0 198.692 57.3075 256 128 256C198.692 256 256 198.692 256 128Z" fill="white"/>
</mask>
<g mask="url(#mask0_422_1756)">
<path d="M256 0H0V256H256V0Z" fill="#C3F73A"/>
<path d="M289.225 -7.534L85.9512 17.4248C57.885 20.8709 37.9264 46.4167 41.3725 74.4829L66.3314 277.756C69.7775 305.823 95.3232 325.781 123.389 322.335L326.663 297.376C354.729 293.93 374.688 268.384 371.242 240.318L346.283 37.0447C342.837 8.97844 317.291 -10.9801 289.225 -7.534Z" fill="#68B684"/>
<path d="M132.701 143.309C147.276 149.666 161.479 148.922 175.309 141.076" stroke="black" stroke-width="2.22222" stroke-linecap="round"/>
<path d="M112.715 101.631C112.509 97.7095 109.958 94.6551 107.016 94.8093C104.075 94.9634 101.857 98.2678 102.063 102.19C102.268 106.112 104.819 109.166 107.761 109.012C110.702 108.858 112.92 105.553 112.715 101.631Z" fill="black"/>
<path d="M197.931 97.1657C197.726 93.2437 195.175 90.1893 192.233 90.3434C189.292 90.4976 187.074 93.8019 187.279 97.7239C187.485 101.646 190.036 104.7 192.978 104.546C195.919 104.392 198.137 101.088 197.931 97.1657Z" fill="black"/>
</g>
</g>
</g>
<defs>
<clipPath id="clip0_422_1756">
<rect width="256" height="256" rx="128" fill="white"/>
</clipPath>
<clipPath id="clip1_422_1756">
<rect width="256" height="256" fill="white"/>
</clipPath>
</defs>
</svg>
