<svg width="256" height="256" viewBox="0 0 256 256" fill="none" xmlns="http://www.w3.org/2000/svg">
<g clip-path="url(#clip0_422_1768)">
<rect width="256" height="256" rx="128" fill="white"/>
<g clip-path="url(#clip1_422_1768)">
<mask id="mask0_422_1768" style="mask-type:luminance" maskUnits="userSpaceOnUse" x="0" y="0" width="256" height="256">
<path d="M256 128C256 57.3075 198.692 0 128 0C57.3075 0 0 57.3075 0 128C0 198.692 57.3075 256 128 256C198.692 256 256 198.692 256 128Z" fill="white"/>
</mask>
<g mask="url(#mask0_422_1768)">
<path d="M256 0H0V256H256V0Z" fill="#0C2524"/>
<path d="M3.17466 29.2599C-58.8668 87.1145 -62.2609 184.309 -4.40632 246.351C53.4482 308.392 150.643 311.786 212.685 253.932C274.726 196.077 278.12 98.8823 220.266 36.8409C162.411 -25.2005 65.2161 -28.5946 3.17466 29.2599Z" fill="#95E06C"/>
<path d="M68.7764 169.73C67.9145 176.75 70.8059 183.938 76.8147 189.715C82.8235 195.491 91.4574 199.382 100.817 200.531C110.177 201.68 119.495 199.994 126.723 195.843C133.951 191.692 138.496 185.416 139.357 178.396" fill="black"/>
<path d="M77.5047 127.815C77.9833 123.917 76.0013 120.465 73.0778 120.107C70.1542 119.748 67.3962 122.617 66.9176 126.515C66.4389 130.413 68.4209 133.864 71.3445 134.223C74.2681 134.582 77.0261 131.713 77.5047 127.815Z" fill="black"/>
<path d="M148.086 136.481C148.564 132.583 146.582 129.132 143.659 128.773C140.735 128.414 137.977 131.283 137.499 135.181C137.02 139.079 139.002 142.53 141.926 142.889C144.849 143.248 147.607 140.379 148.086 136.481Z" fill="black"/>
</g>
</g>
</g>
<defs>
<clipPath id="clip0_422_1768">
<rect width="256" height="256" rx="128" fill="white"/>
</clipPath>
<clipPath id="clip1_422_1768">
<rect width="256" height="256" fill="white"/>
</clipPath>
</defs>
</svg>
