<svg width="256" height="256" viewBox="0 0 256 256" fill="none" xmlns="http://www.w3.org/2000/svg">
<g clip-path="url(#clip0_422_1780)">
<rect width="256" height="256" rx="128" fill="white"/>
<g clip-path="url(#clip1_422_1780)">
<mask id="mask0_422_1780" style="mask-type:luminance" maskUnits="userSpaceOnUse" x="0" y="0" width="256" height="256">
<path d="M256 128C256 57.3075 198.692 0 128 0C57.3075 0 0 57.3075 0 128C0 198.692 57.3075 256 128 256C198.692 256 256 198.692 256 128Z" fill="white"/>
</mask>
<g mask="url(#mask0_422_1780)">
<path d="M256 0H0V256H256V0Z" fill="#C3F73A"/>
<path d="M64.1783 194.921L226.492 247.66C248.903 254.942 272.973 242.677 280.255 220.267L332.994 57.9529C340.276 35.5421 328.011 11.4715 305.6 4.18977L143.287 -48.5491C120.876 -55.8309 96.8052 -43.5663 89.5235 -21.1554L36.7846 141.158C29.5028 163.569 41.7674 187.64 64.1783 194.921Z" fill="#68B684"/>
<path d="M136.309 138.011C151.382 143.074 165.466 141.094 178.56 132.073" stroke="black" stroke-width="2.22222" stroke-linecap="round"/>
<path d="M114.745 112.318C114.198 108.429 111.391 105.608 108.474 106.018C105.557 106.428 103.635 109.913 104.182 113.802C104.729 117.691 107.536 120.512 110.453 120.102C113.37 119.692 115.292 116.207 114.745 112.318Z" fill="black"/>
<path d="M199.248 100.442C198.701 96.5525 195.894 93.7321 192.977 94.142C190.06 94.552 188.138 98.037 188.685 101.926C189.232 105.815 192.039 108.636 194.956 108.226C197.873 107.816 199.794 104.331 199.248 100.442Z" fill="black"/>
</g>
</g>
</g>
<defs>
<clipPath id="clip0_422_1780">
<rect width="256" height="256" rx="128" fill="white"/>
</clipPath>
<clipPath id="clip1_422_1780">
<rect width="256" height="256" fill="white"/>
</clipPath>
</defs>
</svg>
