<svg width="256" height="256" viewBox="0 0 256 256" fill="none" xmlns="http://www.w3.org/2000/svg">
<g clip-path="url(#clip0_422_1792)">
<rect width="256" height="256" rx="128" fill="white"/>
<g clip-path="url(#clip1_422_1792)">
<mask id="mask0_422_1792" style="mask-type:luminance" maskUnits="userSpaceOnUse" x="0" y="0" width="256" height="256">
<path d="M256 128C256 57.3075 198.692 0 128 0C57.3075 0 0 57.3075 0 128C0 198.692 57.3075 256 128 256C198.692 256 256 198.692 256 128Z" fill="white"/>
</mask>
<g mask="url(#mask0_422_1792)">
<path d="M256 0H0V256H256V0Z" fill="#C3F73A"/>
<path d="M75.9486 40.3205L47.446 243.127C43.5106 271.129 63.0202 297.019 91.022 300.955L293.829 329.457C321.831 333.393 347.721 313.883 351.656 285.881L380.159 83.0745C384.094 55.0726 364.585 29.1825 336.583 25.2471L133.776 -3.25559C105.774 -7.19099 79.884 12.3187 75.9486 40.3205Z" fill="#68B684"/>
<path d="M124.204 182.519C125.188 189.522 129.842 195.718 137.141 199.742C144.44 203.766 153.787 205.29 163.125 203.977C172.463 202.665 181.028 198.624 186.935 192.744C192.842 186.864 195.607 179.625 194.623 172.622" fill="black"/>
<path d="M114.745 140.762C114.198 136.873 111.391 134.052 108.474 134.462C105.557 134.872 103.635 138.357 104.182 142.246C104.729 146.136 107.536 148.956 110.453 148.546C113.37 148.136 115.292 144.651 114.745 140.762Z" fill="black"/>
<path d="M199.248 128.886C198.701 124.997 195.894 122.176 192.977 122.586C190.06 122.996 188.138 126.481 188.685 130.371C189.232 134.26 192.039 137.08 194.956 136.67C197.873 136.26 199.794 132.775 199.248 128.886Z" fill="black"/>
</g>
</g>
</g>
<defs>
<clipPath id="clip0_422_1792">
<rect width="256" height="256" rx="128" fill="white"/>
</clipPath>
<clipPath id="clip1_422_1792">
<rect width="256" height="256" fill="white"/>
</clipPath>
</defs>
</svg>
