<svg width="256" height="256" viewBox="0 0 256 256" fill="none" xmlns="http://www.w3.org/2000/svg">
<g clip-path="url(#clip0_422_1805)">
<rect width="256" height="256" rx="128" fill="white"/>
<g clip-path="url(#clip1_422_1805)">
<mask id="mask0_422_1805" style="mask-type:luminance" maskUnits="userSpaceOnUse" x="0" y="0" width="256" height="256">
<path d="M256 128C256 57.3075 198.692 0 128 0C57.3075 0 0 57.3075 0 128C0 198.692 57.3075 256 128 256C198.692 256 256 198.692 256 128Z" fill="white"/>
</mask>
<g mask="url(#mask0_422_1805)">
<path d="M256 0H0V256H256V0Z" fill="#E4F1E9"/>
<path d="M320.669 186.31L275.253 4.15323C268.982 -20.9974 243.51 -36.3025 218.359 -30.0318L36.2024 15.385C11.0518 21.6558 -4.2534 47.1278 2.01736 72.2784L47.4342 254.435C53.7049 279.586 79.177 294.891 104.328 288.62L286.484 243.203C311.635 236.933 326.94 211.461 320.669 186.31Z" fill="#C3F73A"/>
<path d="M136.715 115.93C151.602 121.515 165.747 120.029 179.148 111.47" stroke="black" stroke-width="2.22222" stroke-linecap="round"/>
<path d="M129.462 80.9408C129.051 77.035 126.344 74.1183 123.414 74.4262C120.485 74.734 118.443 78.15 118.854 82.0558C119.264 85.9616 121.972 88.8784 124.901 88.5705C127.83 88.2626 129.872 84.8467 129.462 80.9408Z" fill="black"/>
<path d="M186.039 74.9943C185.629 71.0885 182.921 68.1717 179.992 68.4796C177.062 68.7875 175.02 72.2034 175.431 76.1093C175.841 80.0151 178.549 82.9318 181.478 82.6239C184.408 82.316 186.45 78.9001 186.039 74.9943Z" fill="black"/>
</g>
</g>
</g>
<defs>
<clipPath id="clip0_422_1805">
<rect width="256" height="256" rx="128" fill="white"/>
</clipPath>
<clipPath id="clip1_422_1805">
<rect width="256" height="256" fill="white"/>
</clipPath>
</defs>
</svg>
