<svg width="256" height="256" viewBox="0 0 256 256" fill="none" xmlns="http://www.w3.org/2000/svg">
<g clip-path="url(#clip0_422_1806)">
<rect width="256" height="256" rx="128" fill="white"/>
<g clip-path="url(#clip1_422_1806)">
<mask id="mask0_422_1806" style="mask-type:luminance" maskUnits="userSpaceOnUse" x="0" y="0" width="256" height="256">
<path d="M256 128C256 57.3075 198.692 0 128 0C57.3075 0 0 57.3075 0 128C0 198.692 57.3075 256 128 256C198.692 256 256 198.692 256 128Z" fill="white"/>
</mask>
<g mask="url(#mask0_422_1806)">
<path d="M256 0H0V256H256V0Z" fill="#68B684"/>
<path d="M254.688 240.071C287.552 169.595 257.061 85.8213 186.585 52.9578C116.109 20.0943 32.3354 50.5852 -0.528091 121.061C-33.3916 191.537 -2.90064 275.311 67.5754 308.174C138.051 341.038 221.825 310.547 254.688 240.071Z" fill="#0C2524"/>
<path d="M86.708 166.601C87.3244 173.646 91.6473 180.077 98.7258 184.477C105.804 188.878 115.058 190.889 124.452 190.067C133.846 189.245 142.611 185.658 148.818 180.095C155.024 174.532 158.165 167.448 157.549 160.403" fill="white"/>
<path d="M101.319 129.631C100.977 125.718 98.3206 122.755 95.3863 123.011C92.452 123.268 90.3507 126.648 90.693 130.56C91.0353 134.473 93.6915 137.436 96.6258 137.18C99.5601 136.923 101.661 133.543 101.319 129.631Z" fill="white"/>
<path d="M143.823 125.912C143.481 122 140.824 119.036 137.89 119.293C134.956 119.55 132.855 122.929 133.197 126.842C133.539 130.754 136.195 133.718 139.13 133.461C142.064 133.204 144.165 129.825 143.823 125.912Z" fill="white"/>
</g>
</g>
</g>
<defs>
<clipPath id="clip0_422_1806">
<rect width="256" height="256" rx="128" fill="white"/>
</clipPath>
<clipPath id="clip1_422_1806">
<rect width="256" height="256" fill="white"/>
</clipPath>
</defs>
</svg>
