<svg width="256" height="256" viewBox="0 0 256 256" fill="none" xmlns="http://www.w3.org/2000/svg">
<g clip-path="url(#clip0_422_1807)">
<rect width="256" height="256" rx="128" fill="white"/>
<g clip-path="url(#clip1_422_1807)">
<mask id="mask0_422_1807" style="mask-type:luminance" maskUnits="userSpaceOnUse" x="0" y="0" width="256" height="256">
<path d="M256 128C256 57.3075 198.692 0 128 0C57.3075 0 0 57.3075 0 128C0 198.692 57.3075 256 128 256C198.692 256 256 198.692 256 128Z" fill="white"/>
</mask>
<g mask="url(#mask0_422_1807)">
<path d="M256 0H0V256H256V0Z" fill="#95E06C"/>
<path d="M1.33427 67.679C-57.3532 118.695 -63.572 207.628 -12.5557 266.315C38.4605 325.003 127.393 331.222 186.08 280.205C244.768 229.189 250.987 140.257 199.97 81.569C148.954 22.8815 60.0218 16.6628 1.33427 67.679Z" fill="#E4F1E9"/>
<path d="M55.1025 168.485C53.9962 175.47 56.635 182.756 62.4386 188.738C68.2421 194.721 76.7349 198.91 86.0488 200.385C95.3626 201.861 104.734 200.5 112.103 196.604C119.471 192.708 124.232 186.594 125.338 179.609" fill="black"/>
<path d="M50.129 131.699C50.7433 127.82 48.883 124.301 45.9737 123.841C43.0645 123.38 40.208 126.151 39.5936 130.03C38.9793 133.909 40.8396 137.427 43.7489 137.888C46.6581 138.349 49.5146 135.578 50.129 131.699Z" fill="black"/>
<path d="M148.459 147.273C149.073 143.394 147.213 139.875 144.304 139.415C141.395 138.954 138.538 141.725 137.924 145.604C137.309 149.483 139.17 153.001 142.079 153.462C144.988 153.923 147.845 151.152 148.459 147.273Z" fill="black"/>
</g>
</g>
</g>
<defs>
<clipPath id="clip0_422_1807">
<rect width="256" height="256" rx="128" fill="white"/>
</clipPath>
<clipPath id="clip1_422_1807">
<rect width="256" height="256" fill="white"/>
</clipPath>
</defs>
</svg>
