<svg width="256" height="256" viewBox="0 0 256 256" fill="none" xmlns="http://www.w3.org/2000/svg">
<g clip-path="url(#clip0_422_1808)">
<rect width="256" height="256" rx="128" fill="white"/>
<g clip-path="url(#clip1_422_1808)">
<mask id="mask0_422_1808" style="mask-type:luminance" maskUnits="userSpaceOnUse" x="0" y="0" width="256" height="256">
<path d="M256 128C256 57.3075 198.692 0 128 0C57.3075 0 0 57.3075 0 128C0 198.692 57.3075 256 128 256C198.692 256 256 198.692 256 128Z" fill="white"/>
</mask>
<g mask="url(#mask0_422_1808)">
<path d="M256 0H0V256H256V0Z" fill="#C3F73A"/>
<path d="M193.223 291.827C256.21 259.733 281.254 182.654 249.161 119.667C217.067 56.6796 139.988 31.6352 77.001 63.7289C14.0135 95.8227 -11.0308 172.901 21.0629 235.889C53.1566 298.876 130.235 323.92 193.223 291.827Z" fill="#68B684"/>
<path d="M42.3438 158.129C41.9736 165.192 45.3595 172.162 51.7566 177.505C58.1537 182.848 67.038 186.127 76.455 186.62C85.872 187.114 95.0503 184.782 101.971 180.136C108.891 175.491 112.987 168.914 113.357 161.851" fill="black"/>
<path d="M40.2818 129.538C40.4874 125.616 38.2695 122.311 35.328 122.157C32.3865 122.003 29.8353 125.058 29.6298 128.98C29.4242 132.902 31.6422 136.206 34.5836 136.36C37.5251 136.514 40.0763 133.46 40.2818 129.538Z" fill="black"/>
<path d="M125.499 134.004C125.704 130.082 123.486 126.778 120.545 126.623C117.603 126.469 115.052 129.524 114.847 133.446C114.641 137.368 116.859 140.672 119.8 140.826C122.742 140.98 125.293 137.926 125.499 134.004Z" fill="black"/>
</g>
</g>
</g>
<defs>
<clipPath id="clip0_422_1808">
<rect width="256" height="256" rx="128" fill="white"/>
</clipPath>
<clipPath id="clip1_422_1808">
<rect width="256" height="256" fill="white"/>
</clipPath>
</defs>
</svg>
