<svg width="256" height="256" viewBox="0 0 256 256" fill="none" xmlns="http://www.w3.org/2000/svg">
<g clip-path="url(#clip0_422_1809)">
<rect width="256" height="256" rx="128" fill="white"/>
<g clip-path="url(#clip1_422_1809)">
<mask id="mask0_422_1809" style="mask-type:luminance" maskUnits="userSpaceOnUse" x="0" y="0" width="256" height="256">
<path d="M256 128C256 57.3075 198.692 0 128 0C57.3075 0 0 57.3075 0 128C0 198.692 57.3075 256 128 256C198.692 256 256 198.692 256 128Z" fill="white"/>
</mask>
<g mask="url(#mask0_422_1809)">
<path d="M256 0H0V256H256V0Z" fill="#68B684"/>
<path d="M173.421 336.785C250.304 300.934 283.567 209.545 247.716 132.662C211.865 55.7791 120.476 22.5162 43.5929 58.3673C-33.2901 94.2184 -66.553 185.607 -30.7018 262.49C5.14926 339.373 96.5383 372.636 173.421 336.785Z" fill="#0C2524"/>
<path d="M83.6094 174.598C82.993 181.643 86.1336 188.727 92.3403 194.29C98.547 199.853 107.311 203.44 116.705 204.262C126.1 205.084 135.354 203.073 142.432 198.672C149.511 194.272 153.833 187.841 154.45 180.796" fill="white"/>
<path d="M105.039 133.643C105.381 129.731 103.28 126.351 100.345 126.094C97.411 125.838 94.7547 128.801 94.4125 132.713C94.0702 136.626 96.1714 140.006 99.1057 140.262C102.04 140.519 104.696 137.556 105.039 133.643Z" fill="white"/>
<path d="M147.542 137.362C147.885 133.449 145.783 130.069 142.849 129.813C139.915 129.556 137.259 132.52 136.916 136.432C136.574 140.344 138.675 143.724 141.61 143.981C144.544 144.238 147.2 141.274 147.542 137.362Z" fill="white"/>
</g>
</g>
</g>
<defs>
<clipPath id="clip0_422_1809">
<rect width="256" height="256" rx="128" fill="white"/>
</clipPath>
<clipPath id="clip1_422_1809">
<rect width="256" height="256" fill="white"/>
</clipPath>
</defs>
</svg>
