<svg width="256" height="256" viewBox="0 0 256 256" fill="none" xmlns="http://www.w3.org/2000/svg">
<g clip-path="url(#clip0_422_1810)">
<rect width="256" height="256" rx="128" fill="white"/>
<g clip-path="url(#clip1_422_1810)">
<mask id="mask0_422_1810" style="mask-type:luminance" maskUnits="userSpaceOnUse" x="0" y="0" width="256" height="256">
<path d="M256 128C256 57.3075 198.692 0 128 0C57.3075 0 0 57.3075 0 128C0 198.692 57.3075 256 128 256C198.692 256 256 198.692 256 128Z" fill="white"/>
</mask>
<g mask="url(#mask0_422_1810)">
<path d="M256 0H0V256H256V0Z" fill="#95E06C"/>
<path d="M305.136 243.336L318.232 56.0595C320.04 30.2021 300.544 7.7747 274.687 5.96657L87.4108 -7.12904C61.5534 -8.93717 39.126 10.5586 37.3179 36.4161L24.2223 223.692C22.4142 249.55 41.91 271.977 67.7674 273.785L255.043 286.881C280.901 288.689 303.328 269.193 305.136 243.336Z" fill="#E4F1E9"/>
<path d="M136.155 101.009C150.839 107.111 165.026 106.119 178.718 98.0328" stroke="black" stroke-width="2.22222" stroke-linecap="round"/>
<path d="M108.847 67.2762C108.573 63.3584 105.969 60.349 103.03 60.5545C100.092 60.7599 97.932 64.1025 98.206 68.0203C98.48 71.9381 101.084 74.9475 104.022 74.7421C106.961 74.5366 109.121 71.194 108.847 67.2762Z" fill="black"/>
<path d="M208.16 60.3317C207.886 56.4139 205.282 53.4044 202.344 53.6099C199.405 53.8154 197.246 57.1579 197.519 61.0757C197.793 64.9935 200.398 68.0029 203.336 67.7975C206.274 67.592 208.434 64.2494 208.16 60.3317Z" fill="black"/>
</g>
</g>
</g>
<defs>
<clipPath id="clip0_422_1810">
<rect width="256" height="256" rx="128" fill="white"/>
</clipPath>
<clipPath id="clip1_422_1810">
<rect width="256" height="256" fill="white"/>
</clipPath>
</defs>
</svg>
