<svg width="256" height="256" viewBox="0 0 256 256" fill="none" xmlns="http://www.w3.org/2000/svg">
<g clip-path="url(#clip0_422_1811)">
<rect width="256" height="256" rx="128" fill="white"/>
<g clip-path="url(#clip1_422_1811)">
<mask id="mask0_422_1811" style="mask-type:luminance" maskUnits="userSpaceOnUse" x="0" y="0" width="256" height="256">
<path d="M256 128C256 57.3075 198.692 0 128 0C57.3075 0 0 57.3075 0 128C0 198.692 57.3075 256 128 256C198.692 256 256 198.692 256 128Z" fill="white"/>
</mask>
<g mask="url(#mask0_422_1811)">
<path d="M256 0H0V256H256V0Z" fill="#E4F1E9"/>
<path d="M37.4363 54.6713L34.1599 242.376C33.7075 268.293 54.3504 289.669 80.267 290.121L267.972 293.398C293.888 293.85 315.265 273.207 315.717 247.291L318.993 59.5859C319.446 33.6693 298.803 12.293 272.886 11.8406L85.1816 8.56422C59.265 8.11185 37.8887 28.7547 37.4363 54.6713Z" fill="#C3F73A"/>
<path d="M141.979 170.044C141.856 177.115 145.483 183.962 152.063 189.079C158.642 194.196 167.636 197.163 177.064 197.327C186.493 197.492 195.584 194.84 202.338 189.957C209.093 185.073 212.956 178.356 213.08 171.285" fill="black"/>
<path d="M153.266 134.68C153.334 130.753 151.002 127.528 148.057 127.477C145.112 127.425 142.669 130.567 142.601 134.494C142.532 138.421 144.864 141.646 147.809 141.697C150.754 141.748 153.197 138.607 153.266 134.68Z" fill="black"/>
<path d="M210.145 135.673C210.214 131.746 207.882 128.521 204.937 128.47C201.992 128.418 199.549 131.56 199.48 135.487C199.412 139.413 201.744 142.638 204.689 142.69C207.634 142.741 210.077 139.6 210.145 135.673Z" fill="black"/>
</g>
</g>
</g>
<defs>
<clipPath id="clip0_422_1811">
<rect width="256" height="256" rx="128" fill="white"/>
</clipPath>
<clipPath id="clip1_422_1811">
<rect width="256" height="256" fill="white"/>
</clipPath>
</defs>
</svg>
