<svg width="256" height="256" viewBox="0 0 256 256" fill="none" xmlns="http://www.w3.org/2000/svg">
<g clip-path="url(#clip0_422_1812)">
<rect width="256" height="256" rx="128" fill="white"/>
<g clip-path="url(#clip1_422_1812)">
<mask id="mask0_422_1812" style="mask-type:luminance" maskUnits="userSpaceOnUse" x="0" y="0" width="256" height="256">
<path d="M256 128C256 57.3075 198.692 0 128 0C57.3075 0 0 57.3075 0 128C0 198.692 57.3075 256 128 256C198.692 256 256 198.692 256 128Z" fill="white"/>
</mask>
<g mask="url(#mask0_422_1812)">
<path d="M256 0H0V256H256V0Z" fill="#E4F1E9"/>
<path d="M348.359 205.207L233.837 35.4199C218.024 11.9772 186.202 5.79154 162.759 21.6038L-7.02756 136.127C-30.4703 151.939 -36.6559 183.761 -20.8436 207.204L93.6791 376.991C109.491 400.434 141.314 406.619 164.757 390.807L334.543 276.284C357.986 260.472 364.172 228.649 348.359 205.207Z" fill="#C3F73A"/>
<path d="M94.8691 195.6C95.6084 202.634 100.043 208.988 107.197 213.264C114.351 217.541 123.639 219.39 133.017 218.404C142.396 217.418 151.096 213.679 157.205 208.008C163.313 202.338 166.33 195.2 165.591 188.167" fill="black"/>
<path d="M101.018 152.052C100.607 148.146 97.8995 145.229 94.9701 145.537C92.0407 145.845 89.9988 149.261 90.4093 153.167C90.8198 157.073 93.5274 159.989 96.4568 159.682C99.3861 159.374 101.428 155.958 101.018 152.052Z" fill="black"/>
<path d="M157.595 146.105C157.184 142.2 154.477 139.283 151.547 139.591C148.618 139.899 146.576 143.315 146.986 147.22C147.397 151.126 150.105 154.043 153.034 153.735C155.963 153.427 158.005 150.011 157.595 146.105Z" fill="black"/>
</g>
</g>
</g>
<defs>
<clipPath id="clip0_422_1812">
<rect width="256" height="256" rx="128" fill="white"/>
</clipPath>
<clipPath id="clip1_422_1812">
<rect width="256" height="256" fill="white"/>
</clipPath>
</defs>
</svg>
