<svg width="256" height="256" viewBox="0 0 256 256" fill="none" xmlns="http://www.w3.org/2000/svg">
<g clip-path="url(#clip0_422_1813)">
<rect width="256" height="256" rx="128" fill="white"/>
<g clip-path="url(#clip1_422_1813)">
<mask id="mask0_422_1813" style="mask-type:luminance" maskUnits="userSpaceOnUse" x="0" y="0" width="256" height="256">
<path d="M256 128C256 57.3075 198.692 0 128 0C57.3075 0 0 57.3075 0 128C0 198.692 57.3075 256 128 256C198.692 256 256 198.692 256 128Z" fill="white"/>
</mask>
<g mask="url(#mask0_422_1813)">
<path d="M256 -0.000244141H0V256H256V-0.000244141Z" fill="#68B684"/>
<path d="M-12.9109 44.3738C-45.7744 114.85 -15.2834 198.623 55.1926 231.487C125.669 264.35 209.442 233.859 242.305 163.383C275.169 92.907 244.678 9.13379 174.202 -23.7297C103.726 -56.5932 19.9527 -26.1023 -12.9109 44.3738Z" fill="#0C2524"/>
<path d="M69.9521 118.975C83.5005 127.299 97.6686 128.538 112.456 122.694" stroke="white" stroke-width="2.22222" stroke-linecap="round"/>
<path d="M76.5932 83.8648C76.9355 79.9524 74.8343 76.5726 71.9 76.3159C68.9656 76.0592 66.3094 79.0227 65.9671 82.9351C65.6248 86.8475 67.7261 90.2273 70.6604 90.484C73.5947 90.7407 76.2509 87.7772 76.5932 83.8648Z" fill="white"/>
<path d="M119.097 87.5835C119.439 83.6711 117.338 80.2914 114.404 80.0347C111.47 79.7779 108.813 82.7415 108.471 86.6539C108.129 90.5663 110.23 93.946 113.164 94.2028C116.099 94.4595 118.755 91.496 119.097 87.5835Z" fill="white"/>
</g>
</g>
</g>
<defs>
<clipPath id="clip0_422_1813">
<rect width="256" height="256" rx="128" fill="white"/>
</clipPath>
<clipPath id="clip1_422_1813">
<rect width="256" height="256" fill="white"/>
</clipPath>
</defs>
</svg>
