<svg width="256" height="256" viewBox="0 0 256 256" fill="none" xmlns="http://www.w3.org/2000/svg">
<g clip-path="url(#clip0_422_1814)">
<rect width="256" height="256" rx="128" fill="white"/>
<g clip-path="url(#clip1_422_1814)">
<mask id="mask0_422_1814" style="mask-type:luminance" maskUnits="userSpaceOnUse" x="0" y="0" width="256" height="256">
<path d="M256 128C256 57.3075 198.692 0 128 0C57.3075 0 0 57.3075 0 128C0 198.692 57.3075 256 128 256C198.692 256 256 198.692 256 128Z" fill="white"/>
</mask>
<g mask="url(#mask0_422_1814)">
<path d="M256 0H0V256H256V0Z" fill="#0C2524"/>
<path d="M113.366 305.602C183.962 301.903 238.192 241.674 234.492 171.079C230.792 100.483 170.564 46.2534 99.9684 49.9532C29.3728 53.6529 -24.8569 113.881 -21.1572 184.477C-17.4574 255.072 42.7708 309.302 113.366 305.602Z" fill="#95E06C"/>
<path d="M43.7988 164.28C44.6607 171.3 49.2055 177.575 56.4332 181.727C63.6609 185.878 72.9796 187.564 82.3392 186.415C91.6988 185.266 100.333 181.375 106.342 175.599C112.35 169.822 115.242 162.633 114.38 155.614" fill="black"/>
<path d="M43.861 135.614C43.3824 131.716 40.6244 128.847 37.7008 129.206C34.7772 129.565 32.7952 133.016 33.2739 136.914C33.7525 140.812 36.5105 143.681 39.4341 143.322C42.3576 142.963 44.3396 139.512 43.861 135.614Z" fill="black"/>
<path d="M114.442 126.948C113.963 123.05 111.205 120.181 108.282 120.54C105.358 120.899 103.376 124.35 103.855 128.248C104.334 132.146 107.092 135.015 110.015 134.656C112.939 134.297 114.921 130.846 114.442 126.948Z" fill="black"/>
</g>
</g>
</g>
<defs>
<clipPath id="clip0_422_1814">
<rect width="256" height="256" rx="128" fill="white"/>
</clipPath>
<clipPath id="clip1_422_1814">
<rect width="256" height="256" fill="white"/>
</clipPath>
</defs>
</svg>
