<svg width="256" height="256" viewBox="0 0 256 256" fill="none" xmlns="http://www.w3.org/2000/svg">
<g clip-path="url(#clip0_422_1926)">
<rect width="256" height="256" rx="128" fill="white"/>
<g clip-path="url(#clip1_422_1926)">
<mask id="mask0_422_1926" style="mask-type:luminance" maskUnits="userSpaceOnUse" x="0" y="0" width="256" height="256">
<path d="M256 128C256 57.3075 198.692 0 128 0C57.3075 0 0 57.3075 0 128C0 198.692 57.3075 256 128 256C198.692 256 256 198.692 256 128Z" fill="white"/>
</mask>
<g mask="url(#mask0_422_1926)">
<path d="M256 0H0V256H256V0Z" fill="#0C2524"/>
<path d="M154.9 253.057C226.48 222.674 259.876 140.015 229.492 68.4355C199.109 -3.14457 116.45 -36.5406 44.8705 -6.15669C-26.7096 24.2272 -60.1056 106.885 -29.7217 178.465C0.662218 250.045 83.3203 283.441 154.9 253.057Z" fill="#95E06C"/>
<path d="M83.7588 96.8496C97.0084 105.641 111.125 107.374 126.107 102.049" stroke="black" stroke-width="2.22222" stroke-linecap="round"/>
<path d="M77.5047 60.2592C77.9833 56.3611 76.0013 52.9101 73.0778 52.5511C70.1542 52.1921 67.3962 55.0611 66.9176 58.9592C66.4389 62.8573 68.4209 66.3083 71.3445 66.6673C74.2681 67.0263 77.0261 64.1573 77.5047 60.2592Z" fill="black"/>
<path d="M148.086 68.9254C148.564 65.0273 146.582 61.5763 143.659 61.2174C140.735 60.8584 137.977 63.7274 137.499 67.6255C137.02 71.5236 139.002 74.9746 141.926 75.3336C144.849 75.6925 147.607 72.8235 148.086 68.9254Z" fill="black"/>
</g>
</g>
</g>
<defs>
<clipPath id="clip0_422_1926">
<rect width="256" height="256" rx="128" fill="white"/>
</clipPath>
<clipPath id="clip1_422_1926">
<rect width="256" height="256" fill="white"/>
</clipPath>
</defs>
</svg>
