<svg width="256" height="256" viewBox="0 0 256 256" fill="none" xmlns="http://www.w3.org/2000/svg">
<g clip-path="url(#clip0_422_1927)">
<rect width="256" height="256" rx="128" fill="white"/>
<g clip-path="url(#clip1_422_1927)">
<mask id="mask0_422_1927" style="mask-type:luminance" maskUnits="userSpaceOnUse" x="0" y="0" width="256" height="256">
<path d="M256 128C256 57.3075 198.692 0 128 0C57.3075 0 0 57.3075 0 128C0 198.692 57.3075 256 128 256C198.692 256 256 198.692 256 128Z" fill="white"/>
</mask>
<g mask="url(#mask0_422_1927)">
<path d="M256 0H0V256H256V0Z" fill="#0C2524"/>
<path d="M47.2116 38.2775L40.0642 242.953C39.0773 271.213 61.1864 294.922 89.4462 295.908L294.121 303.056C322.381 304.043 346.09 281.934 347.077 253.674L354.224 48.9987C355.211 20.7389 333.102 -2.97017 304.843 -3.95703L100.167 -11.1044C71.9075 -12.0913 48.1985 10.0177 47.2116 38.2775Z" fill="#95E06C"/>
<path d="M93.21 150.561C93.4568 157.629 97.4372 164.277 104.276 169.043C111.114 173.808 120.25 176.3 129.675 175.971C139.099 175.642 148.039 172.518 154.528 167.288C161.018 162.057 164.525 155.148 164.278 148.08" fill="black"/>
<path d="M95.2746 107.797C95.1375 103.872 92.64 100.773 89.6963 100.876C86.7526 100.979 84.4773 104.244 84.6144 108.169C84.7514 112.094 87.2489 115.192 90.1926 115.089C93.1364 114.987 95.4116 111.721 95.2746 107.797Z" fill="black"/>
<path d="M166.342 105.315C166.205 101.39 163.707 98.2914 160.764 98.3942C157.82 98.497 155.545 101.762 155.682 105.687C155.819 109.612 158.316 112.711 161.26 112.608C164.204 112.505 166.479 109.24 166.342 105.315Z" fill="black"/>
</g>
</g>
</g>
<defs>
<clipPath id="clip0_422_1927">
<rect width="256" height="256" rx="128" fill="white"/>
</clipPath>
<clipPath id="clip1_422_1927">
<rect width="256" height="256" fill="white"/>
</clipPath>
</defs>
</svg>
