<svg width="256" height="256" viewBox="0 0 256 256" fill="none" xmlns="http://www.w3.org/2000/svg">
<g clip-path="url(#clip0_422_1928)">
<rect width="256" height="256" rx="128" fill="white"/>
<g clip-path="url(#clip1_422_1928)">
<mask id="mask0_422_1928" style="mask-type:luminance" maskUnits="userSpaceOnUse" x="0" y="0" width="256" height="256">
<path d="M256 128C256 57.3075 198.692 0 128 0C57.3075 0 0 57.3075 0 128C0 198.692 57.3075 256 128 256C198.692 256 256 198.692 256 128Z" fill="white"/>
</mask>
<g mask="url(#mask0_422_1928)">
<path d="M256 0H0V256H256V0Z" fill="#E4F1E9"/>
<path d="M189.015 67.1125C131.823 25.5605 51.7758 38.2388 10.2238 95.4302C-31.3282 152.622 -18.6499 232.669 38.5415 274.221C95.7329 315.773 175.78 303.095 217.332 245.903C258.884 188.712 246.206 108.665 189.015 67.1125Z" fill="#C3F73A"/>
<path d="M77.6738 174.022C76.9346 181.056 79.9511 188.193 86.0598 193.864C92.1684 199.534 100.869 203.274 110.247 204.259C119.625 205.245 128.913 203.396 136.067 199.12C143.222 194.843 147.656 188.489 148.395 181.455" fill="black"/>
<path d="M91.2555 146.849C91.6661 142.943 89.6241 139.527 86.6947 139.219C83.7654 138.911 81.0578 141.828 80.6473 145.734C80.2368 149.639 82.2787 153.055 85.2081 153.363C88.1375 153.671 90.845 150.754 91.2555 146.849Z" fill="black"/>
<path d="M147.833 152.795C148.243 148.889 146.201 145.473 143.272 145.165C140.343 144.858 137.635 147.774 137.224 151.68C136.814 155.586 138.856 159.002 141.785 159.31C144.715 159.618 147.422 156.701 147.833 152.795Z" fill="black"/>
</g>
</g>
</g>
<defs>
<clipPath id="clip0_422_1928">
<rect width="256" height="256" rx="128" fill="white"/>
</clipPath>
<clipPath id="clip1_422_1928">
<rect width="256" height="256" fill="white"/>
</clipPath>
</defs>
</svg>
