<svg width="256" height="256" viewBox="0 0 256 256" fill="none" xmlns="http://www.w3.org/2000/svg">
<g clip-path="url(#clip0_422_1929)">
<rect width="256" height="256" rx="128" fill="white"/>
<g clip-path="url(#clip1_422_1929)">
<mask id="mask0_422_1929" style="mask-type:luminance" maskUnits="userSpaceOnUse" x="0" y="0" width="256" height="256">
<path d="M256 128C256 57.3075 198.692 0 128 0C57.3075 0 0 57.3075 0 128C0 198.692 57.3075 256 128 256C198.692 256 256 198.692 256 128Z" fill="white"/>
</mask>
<g mask="url(#mask0_422_1929)">
<path d="M256 0H0V256H256V0Z" fill="#95E06C"/>
<path d="M45.1307 138.217L177.764 245.621C196.076 260.451 222.943 257.627 237.773 239.314L345.177 106.681C360.006 88.3682 357.182 61.5012 338.87 46.6718L206.237 -60.7322C187.924 -75.5616 161.057 -72.7378 146.228 -54.425L38.8235 78.2079C23.9941 96.5207 26.8179 123.388 45.1307 138.217Z" fill="#E4F1E9"/>
<path d="M140.041 117.027C155.201 121.826 169.248 119.601 182.182 110.353" stroke="black" stroke-width="2.22222" stroke-linecap="round"/>
<path d="M111.009 92.8266C110.395 88.9476 107.538 86.1766 104.629 86.6374C101.72 87.0981 99.8594 90.6162 100.474 94.4952C101.088 98.3742 103.945 101.145 106.854 100.684C109.763 100.224 111.623 96.7056 111.009 92.8266Z" fill="black"/>
<path d="M209.339 77.2526C208.725 73.3736 205.868 70.6026 202.959 71.0634C200.05 71.5242 198.189 75.0423 198.804 78.9213C199.418 82.8003 202.275 85.5713 205.184 85.1105C208.093 84.6497 209.954 81.1316 209.339 77.2526Z" fill="black"/>
</g>
</g>
</g>
<defs>
<clipPath id="clip0_422_1929">
<rect width="256" height="256" rx="128" fill="white"/>
</clipPath>
<clipPath id="clip1_422_1929">
<rect width="256" height="256" fill="white"/>
</clipPath>
</defs>
</svg>
