<svg width="256" height="256" viewBox="0 0 256 256" fill="none" xmlns="http://www.w3.org/2000/svg">
<g clip-path="url(#clip0_422_1930)">
<rect width="256" height="256" rx="128" fill="white"/>
<g clip-path="url(#clip1_422_1930)">
<mask id="mask0_422_1930" style="mask-type:luminance" maskUnits="userSpaceOnUse" x="0" y="0" width="256" height="256">
<path d="M256 128C256 57.3075 198.692 0 128 0C57.3075 0 0 57.3075 0 128C0 198.692 57.3075 256 128 256C198.692 256 256 198.692 256 128Z" fill="white"/>
</mask>
<g mask="url(#mask0_422_1930)">
<path d="M256 0H0V256H256V0Z" fill="#C3F73A"/>
<path d="M92.1232 253.509C169.838 250.795 230.637 185.595 227.924 107.881C225.21 30.1664 160.01 -30.6335 82.2955 -27.9196C4.58121 -25.2058 -56.2187 39.9941 -53.5049 117.708C-50.791 195.423 14.4089 256.223 92.1232 253.509Z" fill="#68B684"/>
<path d="M104.895 96.4482C117.989 105.469 132.072 107.449 147.146 102.386" stroke="black" stroke-width="2.22222" stroke-linecap="round"/>
<path d="M92.2382 58.7645C92.7848 54.8753 90.8633 51.3902 87.9465 50.9803C85.0296 50.5704 82.2219 53.3908 81.6754 57.2799C81.1288 61.1691 83.0503 64.6542 85.9671 65.0641C88.884 65.474 91.6916 62.6536 92.2382 58.7645Z" fill="black"/>
<path d="M176.741 70.6407C177.288 66.7515 175.366 63.2665 172.449 62.8565C169.533 62.4466 166.725 65.267 166.178 69.1562C165.632 73.0453 167.553 76.5304 170.47 76.9403C173.387 77.3503 176.195 74.5298 176.741 70.6407Z" fill="black"/>
</g>
</g>
</g>
<defs>
<clipPath id="clip0_422_1930">
<rect width="256" height="256" rx="128" fill="white"/>
</clipPath>
<clipPath id="clip1_422_1930">
<rect width="256" height="256" fill="white"/>
</clipPath>
</defs>
</svg>
