<svg width="256" height="256" viewBox="0 0 256 256" fill="none" xmlns="http://www.w3.org/2000/svg">
<g clip-path="url(#clip0_422_1931)">
<rect width="256" height="256" rx="128" fill="white"/>
<g clip-path="url(#clip1_422_1931)">
<mask id="mask0_422_1931" style="mask-type:luminance" maskUnits="userSpaceOnUse" x="0" y="0" width="256" height="256">
<path d="M256 128C256 57.3075 198.692 0 128 0C57.3075 0 0 57.3075 0 128C0 198.692 57.3075 256 128 256C198.692 256 256 198.692 256 128Z" fill="white"/>
</mask>
<g mask="url(#mask0_422_1931)">
<path d="M256 0H0V256H256V0Z" fill="#E4F1E9"/>
<path d="M229.601 284.935L319.38 100.862C331.775 75.4468 321.221 44.795 295.806 32.3991L111.733 -57.3793C86.3177 -69.7751 55.6659 -59.2208 43.2701 -33.8056L-46.5083 150.267C-58.9042 175.683 -48.3499 206.334 -22.9347 218.73L161.138 308.509C186.554 320.905 217.205 310.35 229.601 284.935Z" fill="#C3F73A"/>
<path d="M132.998 118.542C146.399 127.101 160.543 128.587 175.431 123.002" stroke="black" stroke-width="2.22222" stroke-linecap="round"/>
<path d="M133.922 75.7374C134.332 71.8316 132.29 68.4157 129.361 68.1078C126.431 67.7999 123.724 70.7166 123.313 74.6224C122.903 78.5283 124.945 81.9442 127.874 82.2521C130.804 82.56 133.511 79.6433 133.922 75.7374Z" fill="black"/>
<path d="M190.499 81.684C190.909 77.7781 188.867 74.3622 185.938 74.0543C183.009 73.7464 180.301 76.6631 179.89 80.569C179.48 84.4748 181.522 87.8907 184.451 88.1986C187.381 88.5065 190.088 85.5898 190.499 81.684Z" fill="black"/>
</g>
</g>
</g>
<defs>
<clipPath id="clip0_422_1931">
<rect width="256" height="256" rx="128" fill="white"/>
</clipPath>
<clipPath id="clip1_422_1931">
<rect width="256" height="256" fill="white"/>
</clipPath>
</defs>
</svg>
