<svg width="256" height="256" viewBox="0 0 256 256" fill="none" xmlns="http://www.w3.org/2000/svg">
<g clip-path="url(#clip0_422_1932)">
<rect width="256" height="256" rx="128" fill="white"/>
<g clip-path="url(#clip1_422_1932)">
<mask id="mask0_422_1932" style="mask-type:luminance" maskUnits="userSpaceOnUse" x="0" y="0" width="256" height="256">
<path d="M256 128C256 57.3075 198.692 0 128 0C57.3075 0 0 57.3075 0 128C0 198.692 57.3075 256 128 256C198.692 256 256 198.692 256 128Z" fill="white"/>
</mask>
<g mask="url(#mask0_422_1932)">
<path d="M256 0H0V256H256V0Z" fill="#68B684"/>
<path d="M341.825 89.4552L174.063 -28.0133C150.9 -44.2323 118.974 -38.6029 102.755 -15.4398L-14.7135 152.323C-30.9325 175.486 -25.3032 207.411 -2.14003 223.63L165.622 341.099C188.785 357.318 220.711 351.688 236.93 328.525L354.398 160.763C370.617 137.6 364.988 105.674 341.825 89.4552Z" fill="#0C2524"/>
<path d="M126.223 133.17C139.771 141.494 153.939 142.734 168.727 136.889" stroke="white" stroke-width="2.22222" stroke-linecap="round"/>
<path d="M133.483 90.9761C133.825 87.0637 131.724 83.684 128.79 83.4272C125.855 83.1705 123.199 86.134 122.857 90.0465C122.514 93.9589 124.616 97.3386 127.55 97.5953C130.484 97.8521 133.141 94.8885 133.483 90.9761Z" fill="white"/>
<path d="M175.987 94.6949C176.329 90.7825 174.228 87.4027 171.294 87.146C168.359 86.8893 165.703 89.8528 165.361 93.7652C165.018 97.6776 167.12 101.057 170.054 101.314C172.988 101.571 175.644 98.6073 175.987 94.6949Z" fill="white"/>
</g>
</g>
</g>
<defs>
<clipPath id="clip0_422_1932">
<rect width="256" height="256" rx="128" fill="white"/>
</clipPath>
<clipPath id="clip1_422_1932">
<rect width="256" height="256" fill="white"/>
</clipPath>
</defs>
</svg>
