<svg width="256" height="256" viewBox="0 0 256 256" fill="none" xmlns="http://www.w3.org/2000/svg">
<g clip-path="url(#clip0_422_1933)">
<rect width="256" height="256" rx="128" fill="white"/>
<g clip-path="url(#clip1_422_1933)">
<mask id="mask0_422_1933" style="mask-type:luminance" maskUnits="userSpaceOnUse" x="0" y="0" width="256" height="256">
<path d="M256 128C256 57.3075 198.692 0 128 0C57.3075 0 0 57.3075 0 128C0 198.692 57.3075 256 128 256C198.692 256 256 198.692 256 128Z" fill="white"/>
</mask>
<g mask="url(#mask0_422_1933)">
<path d="M256 0H0V256H256V0Z" fill="#C3F73A"/>
<path d="M285.742 102.444C263.006 28.0796 184.292 -13.7736 109.928 8.96175C35.5641 31.6971 -6.28911 110.412 16.4462 184.775C39.1815 259.139 117.896 300.992 192.26 278.257C266.624 255.522 308.477 176.807 285.742 102.444Z" fill="#68B684"/>
<path d="M57.6621 100.653C72.237 107.01 86.4397 106.266 100.27 98.4198" stroke="black" stroke-width="2.22222" stroke-linecap="round"/>
<path d="M38.0477 66.0763C37.8421 62.1543 35.2909 59.0999 32.3495 59.2541C29.408 59.4082 27.1901 62.7126 27.3956 66.6346C27.6011 70.5565 30.1523 73.611 33.0938 73.4568C36.0353 73.3027 38.2532 69.9983 38.0477 66.0763Z" fill="black"/>
<path d="M123.264 61.6103C123.059 57.6883 120.508 54.6339 117.566 54.788C114.625 54.9422 112.407 58.2465 112.612 62.1685C112.818 66.0905 115.369 69.1449 118.311 68.9907C121.252 68.8366 123.47 65.5322 123.264 61.6103Z" fill="black"/>
</g>
</g>
</g>
<defs>
<clipPath id="clip0_422_1933">
<rect width="256" height="256" rx="128" fill="white"/>
</clipPath>
<clipPath id="clip1_422_1933">
<rect width="256" height="256" fill="white"/>
</clipPath>
</defs>
</svg>
