<svg width="256" height="256" viewBox="0 0 256 256" fill="none" xmlns="http://www.w3.org/2000/svg">
<g clip-path="url(#clip0_422_1934)">
<rect width="256" height="256" rx="128" fill="white"/>
<g clip-path="url(#clip1_422_1934)">
<mask id="mask0_422_1934" style="mask-type:luminance" maskUnits="userSpaceOnUse" x="0" y="0" width="256" height="256">
<path d="M256 128C256 57.3075 198.692 0 128 0C57.3075 0 0 57.3075 0 128C0 198.692 57.3075 256 128 256C198.692 256 256 198.692 256 128Z" fill="white"/>
</mask>
<g mask="url(#mask0_422_1934)">
<path d="M256 0H0V256H256V0Z" fill="#E4F1E9"/>
<path d="M30.8848 26.6693C-24.7693 90.692 -17.9852 187.709 46.0375 243.363C110.06 299.017 207.078 292.233 262.732 228.211C318.386 164.188 311.602 67.1707 247.579 11.5166C183.556 -44.1375 86.5389 -37.3534 30.8848 26.6693Z" fill="#C3F73A"/>
<path d="M57.2676 171.284C57.391 178.356 61.2548 185.072 68.0091 189.956C74.7633 194.84 83.8546 197.491 93.2831 197.326C102.712 197.162 111.705 194.195 118.285 189.078C124.864 183.962 128.491 177.114 128.368 170.043" fill="black"/>
<path d="M67.1876 128.438C67.119 124.511 64.676 121.369 61.731 121.421C58.7859 121.472 56.454 124.697 56.5225 128.624C56.5911 132.551 59.0341 135.692 61.9792 135.641C64.9242 135.589 67.2561 132.365 67.1876 128.438Z" fill="black"/>
<path d="M124.067 127.445C123.999 123.518 121.556 120.377 118.611 120.428C115.666 120.479 113.334 123.704 113.402 127.631C113.471 131.558 115.914 134.699 118.859 134.648C121.804 134.597 124.136 131.372 124.067 127.445Z" fill="black"/>
</g>
</g>
</g>
<defs>
<clipPath id="clip0_422_1934">
<rect width="256" height="256" rx="128" fill="white"/>
</clipPath>
<clipPath id="clip1_422_1934">
<rect width="256" height="256" fill="white"/>
</clipPath>
</defs>
</svg>
