<svg width="256" height="256" viewBox="0 0 256 256" fill="none" xmlns="http://www.w3.org/2000/svg">
<g clip-path="url(#clip0_422_1935)">
<rect width="256" height="256" rx="128" fill="white"/>
<g clip-path="url(#clip1_422_1935)">
<mask id="mask0_422_1935" style="mask-type:luminance" maskUnits="userSpaceOnUse" x="0" y="0" width="256" height="256">
<path d="M256 128C256 57.3075 198.692 0 128 0C57.3075 0 0 57.3075 0 128C0 198.692 57.3075 256 128 256C198.692 256 256 198.692 256 128Z" fill="white"/>
</mask>
<g mask="url(#mask0_422_1935)">
<path d="M256 0H0V256H256V0Z" fill="#95E06C"/>
<path d="M69.9762 272.064C154.794 270.583 222.353 200.625 220.872 115.807C219.392 30.9886 149.433 -36.5698 64.6148 -35.0893C-20.2032 -33.6088 -87.7616 36.35 -86.2811 121.168C-84.8006 205.986 -14.8419 273.544 69.9762 272.064Z" fill="#E4F1E9"/>
<path d="M103.155 145.297C118.315 150.096 132.362 147.871 145.297 138.622" stroke="black" stroke-width="2.22222" stroke-linecap="round"/>
<path d="M71.8987 107.049C71.2844 103.17 68.4279 100.399 65.5186 100.86C62.6094 101.321 60.749 104.839 61.3634 108.718C61.9778 112.597 64.8342 115.368 67.7435 114.907C70.6527 114.446 72.5131 110.928 71.8987 107.049Z" fill="black"/>
<path d="M170.229 91.475C169.614 87.596 166.758 84.825 163.849 85.2858C160.939 85.7466 159.079 89.2647 159.693 93.1437C160.308 97.0227 163.164 99.7937 166.074 99.3329C168.983 98.8721 170.843 95.3541 170.229 91.475Z" fill="black"/>
</g>
</g>
</g>
<defs>
<clipPath id="clip0_422_1935">
<rect width="256" height="256" rx="128" fill="white"/>
</clipPath>
<clipPath id="clip1_422_1935">
<rect width="256" height="256" fill="white"/>
</clipPath>
</defs>
</svg>
